<svg xmlns="http://www.w3.org/2000/svg" viewBox="0 0 750 500"><defs><style>.cls-1,.cls-7{fill:#fff;}.cls-2,.cls-33{fill:#d4d4e9;}.cls-10,.cls-11,.cls-12,.cls-13,.cls-14,.cls-15,.cls-16,.cls-17,.cls-19,.cls-2,.cls-24,.cls-25,.cls-27,.cls-28,.cls-29,.cls-3,.cls-30,.cls-31,.cls-32,.cls-34,.cls-35,.cls-4,.cls-5,.cls-6,.cls-7,.cls-9{fill-rule:evenodd;}.cls-3{fill:#afafd5;}.cls-4{fill:#d4cfe6;}.cls-5{fill:#c4c2df;}.cls-6{fill:#a3a4d0;}.cls-8{fill:#9c9dcc;}.cls-26,.cls-9{fill:#181641;}.cls-10{fill:#de9396;}.cls-11{fill:#616aad;}.cls-12,.cls-20{fill:#c35a5a;}.cls-13{fill:#ecbc6a;}.cls-14,.cls-21{fill:#484d9b;}.cls-15,.cls-18{fill:#323385;}.cls-16{fill:#ce7777;}.cls-17,.cls-23{fill:#a32e35;}.cls-19{fill:#eabfc1;}.cls-22{fill:#c9804c;}.cls-24{fill:#2a275f;}.cls-25{fill:#262353;}.cls-27{fill:#cf4749;}.cls-28{fill:#d57a79;}.cls-29{fill:#201c4e;}.cls-30{fill:#353a91;}.cls-31{fill:#2e2d70;}.cls-32{fill:#cb6459;}.cls-34{fill:#cc696b;}.cls-35{fill:#5e65aa;}</style></defs><g id="BACKGROUND"><rect class="cls-1" width="750" height="500"/></g><g id="OBJECTS"><path class="cls-2" d="M630.29,42.65a88.23,88.23,0,0,1,88,88h0a88.23,88.23,0,0,1-88,88h0a17.7,17.7,0,0,0-17.65,17.65h0a17.71,17.71,0,0,0,17.65,17.66h46a43,43,0,0,1,42.92,42.91h0a43,43,0,0,1-42.92,42.92,37.22,37.22,0,0,0-37.11,37.12h0a67.92,67.92,0,0,1-67.72,67.71h-427a88.23,88.23,0,0,1-88-88h0a88.23,88.23,0,0,1,88-88H153A17.71,17.71,0,0,0,170.69,251h0A17.72,17.72,0,0,0,153,233.32H95.75A43,43,0,0,1,52.84,190.4h0a43,43,0,0,1,42.83-42.91h46.09a37.22,37.22,0,0,0,37.11-37.12h0a67.93,67.93,0,0,1,67.72-67.72Z" transform="translate(0 0)"/><path class="cls-3" d="M443.05,240.61c2.44-9.12,9.62-24.27,30.57-39.28,33.16-23.74,51.21-55.33,26.28-74.2-24.47-18.51-72.74,16.78-82,105.54A212.34,212.34,0,0,0,443.05,240.61Z" transform="translate(0 0)"/><path class="cls-4" d="M429.92,232.43a36.76,36.76,0,0,1,9.55,1.12c.35.08.59-.07.54-.34a1,1,0,0,0-.71-.63,41.53,41.53,0,0,0-9.22-1.18c.22-1.46.45-2.9.7-4.32,2,0,8.42-.11,10.92,0,.33,0,.49-.19.36-.47a1,1,0,0,0-.82-.54c-2.3-.12-7.76-.06-10.28,0,.46-2.65,1-5.22,1.52-7.73,2,0,8.08.23,15.17,1.05.34,0,.53-.16.43-.43a1,1,0,0,0-.8-.58c-6.42-.74-12.07-1-14.59-1,.56-2.52,1.16-5,1.78-7.33,2.7.05,11.49.31,21.67,1.49.34,0,.53-.16.42-.44a1,1,0,0,0-.79-.57c-9.42-1.09-17.65-1.4-21-1.48.84-3.1,1.74-6.08,2.68-8.94,2.74-.09,14.17-.29,24.13,2.19.35.09.6-.05.56-.32a.94.94,0,0,0-.7-.64c-9.28-2.32-19.78-2.35-23.65-2.27q1.75-5.24,3.73-9.94c3.9.21,19.75,1.3,29.23,5.79.34.16.67.11.74-.12s-.16-.55-.51-.71c-9.2-4.35-24-5.61-29.05-5.92q2.1-5,4.39-9.37a199.91,199.91,0,0,1,29.41,8c.35.12.64,0,.66-.22a.87.87,0,0,0-.61-.69,200.85,200.85,0,0,0-29-7.92q1.36-2.6,2.78-5c2.9.49,15.41,2.82,33.7,9.26.35.12.64,0,.65-.23a.84.84,0,0,0-.62-.68,223.54,223.54,0,0,0-33.22-9.2A111.78,111.78,0,0,1,457,161.79c3.87,1,23.54,6.14,35.09,11.18.34.15.67.09.71-.15s-.19-.55-.54-.7c-11.09-4.85-29.45-9.75-34.66-11.1q2.08-2.67,4.18-5a304,304,0,0,1,33.87,11.2c.35.15.66.06.69-.18s-.22-.55-.57-.69a299.54,299.54,0,0,0-33.32-11.07,92.14,92.14,0,0,1,9.71-9.31c3.16.61,17.49,3.5,29.7,8.46.35.14.66.06.69-.18s-.22-.55-.56-.69c-11.23-4.57-24.19-7.4-28.89-8.34,1.31-1.05,2.6-2,3.86-2.9a134.45,134.45,0,0,1,24.45,5c.35.1.62,0,.6-.29s-.33-.55-.68-.66a145,145,0,0,0-23.17-4.89c10.23-7,17.92-8.71,18-8.72.41-.1.48-.52.15-.92a1.49,1.49,0,0,0-1.34-.56,45.08,45.08,0,0,0-8.68,3.3c.77-2,1.9-4.73,2.39-5.09.19-.14.12-.46-.18-.7a.81.81,0,0,0-.88-.17c-.75.56-2.54,5.24-3.15,6.87a74.31,74.31,0,0,0-6.93,4.07l.55-9.94c0-.25-.26-.55-.61-.68s-.65,0-.66.22l-.62,11.32c-1.69,1.17-3.45,2.48-5.25,3.95l0-11.8c0-.25-.28-.55-.63-.67s-.64,0-.64.24l0,13.28a94.63,94.63,0,0,0-8.16,7.83l-1-12.22a.9.9,0,0,0-.67-.66c-.35-.11-.62,0-.6.28l1.15,13.85c-1.24,1.4-2.48,2.86-3.72,4.42l-1.2-11a.92.92,0,0,0-.68-.65c-.35-.1-.62,0-.59.3l1.39,12.75a111.72,111.72,0,0,0-6.66,9.71l-2.18-10.76a1,1,0,0,0-.73-.63c-.35-.08-.58.08-.53.35l2.54,12.52c-.85,1.43-1.69,2.92-2.51,4.44l-2.36-8.22a1,1,0,0,0-.76-.6c-.34-.06-.55.12-.48.39l2.84,9.87q-2.26,4.34-4.36,9.2l-3-9.17a1,1,0,0,0-.78-.59c-.34-.05-.54.14-.45.42l3.54,10.89q-1.8,4.34-3.44,9.09l-3.06-8.14a1,1,0,0,0-.8-.57c-.34,0-.52.16-.42.44l3.73,9.91q-1.39,4.22-2.65,8.77l-3.75-7.36a1,1,0,0,0-.84-.51c-.32,0-.47.22-.33.5l4.52,8.84c-.59,2.23-1.15,4.51-1.68,6.86l-4.15-6.27a1,1,0,0,0-.87-.45c-.3,0-.4.29-.21.57l4.94,7.47c-.47,2.18-.92,4.41-1.34,6.71l-3-4.06a1,1,0,0,0-.88-.41c-.29.05-.36.31-.16.59l3.75,5.17q-.45,2.58-.87,5.27l-3.64-3.34a.84.84,0,0,0-.89-.22c-.22.12-.17.43.1.68L428,231.6c-.22,1.46-.43,3-.62,4.45l1.92.64C429.52,235.25,429.71,233.83,429.92,232.43Z" transform="translate(0 0)"/><path class="cls-5" d="M362.12,260.74c-6.06-10-19-26.85-44.67-44.36-40.57-27.69-70.45-63-55.27-81.92,14.89-18.58,74.27,22.53,119.87,119.2A112,112,0,0,1,362.12,260.74Z" transform="translate(0 0)"/><path class="cls-3" d="M370.85,252.67a25.86,25.86,0,0,0-8.37.65.55.55,0,0,1-.64-.4.54.54,0,0,1,.4-.65,28.23,28.23,0,0,1,8-.72c-.82-1.59-1.64-3.17-2.46-4.72-1.86-.15-7.84-.63-10.09-.64a.54.54,0,0,1-.54-.53.54.54,0,0,1,.54-.54c2.07,0,7.15.4,9.5.59q-2.31-4.35-4.64-8.46a126.41,126.41,0,0,0-13.59.22.54.54,0,1,1-.08-1.07,128.64,128.64,0,0,1,13.06-.25q-2.36-4.12-4.71-8a177.65,177.65,0,0,0-19.41.32.53.53,0,0,1-.57-.5.52.52,0,0,1,.49-.57,178.73,178.73,0,0,1,18.83-.35q-3.11-5.1-6.21-9.83c-2.57-.26-13.23-1.17-21.4.93a.53.53,0,0,1-.65-.39.52.52,0,0,1,.38-.65c7.61-2,17.31-1.36,20.93-1-2.55-3.86-5.08-7.51-7.6-11-3.53,0-17.73.22-24.62,4.51a.53.53,0,1,1-.56-.91c6.69-4.16,19.83-4.64,24.39-4.67q-4-5.5-8-10.4a111.1,111.1,0,0,0-23.86,6.86.53.53,0,0,1-.71-.28.54.54,0,0,1,.28-.7,112.19,112.19,0,0,1,23.53-6.84q-2.34-2.88-4.65-5.56a120.2,120.2,0,0,0-27.3,8,.54.54,0,0,1-.7-.29.52.52,0,0,1,.29-.7,124.66,124.66,0,0,1,26.88-8c-3.65-4.2-7.23-8-10.7-11.53-3.16.84-19.2,5.23-27.78,10a.53.53,0,0,1-.51-.94c8.23-4.58,23.16-8.78,27.41-9.93q-3-3-6-5.71a157.73,157.73,0,0,0-26.64,10.1.54.54,0,0,1-.72-.24.53.53,0,0,1,.23-.72,159.06,159.06,0,0,1,26.2-10c-4.56-4.13-8.87-7.66-12.87-10.65-2.66.46-14.71,2.73-23.93,7.37a.53.53,0,0,1-.72-.23.54.54,0,0,1,.24-.72c8.47-4.27,19.27-6.55,23.23-7.29-1.65-1.22-3.24-2.34-4.77-3.38a82.75,82.75,0,0,0-20.53,3.95.54.54,0,0,1-.67-.35.53.53,0,0,1,.34-.67,87,87,0,0,1,19.39-3.91c-12.36-8.15-20.21-10.5-20.27-10.52a.8.8,0,0,1-.52-1,.79.79,0,0,1,1-.52,60.24,60.24,0,0,1,9.41,4.09,48,48,0,0,0-4.33-5.65.53.53,0,0,1-.13-.74.52.52,0,0,1,.74-.14c.93.65,4.54,5.83,5.78,7.63,2.39,1.3,5.11,2.89,8.11,4.83l-4.65-10.8a.52.52,0,0,1,.27-.7.54.54,0,0,1,.71.27l5.29,12.29q3.09,2.06,6.51,4.6l-5-12.77a.53.53,0,0,1,.3-.7.54.54,0,0,1,.69.31l5.58,14.38c3.4,2.6,7,5.56,10.82,9l-4.17-13.17a.55.55,0,0,1,.35-.68.54.54,0,0,1,.67.35l4.72,14.93c1.73,1.58,3.49,3.24,5.29,5L312,159.64a.53.53,0,0,1,.36-.66.53.53,0,0,1,.67.36l4,13.72q5,5,10.22,10.92l-2.48-11.52a.54.54,0,0,1,1.05-.23l2.88,13.41c1.38,1.59,2.77,3.25,4.17,5l-1.25-8.77a.52.52,0,0,1,.45-.6.53.53,0,0,1,.6.45l1.51,10.52q3.88,4.81,7.86,10.22L341,192.67a.54.54,0,0,1,.48-.59.54.54,0,0,1,.59.47l1.27,11.59c2.31,3.19,4.64,6.55,7,10.05l-.56-8.63a.55.55,0,0,1,.5-.58.54.54,0,0,1,.57.5l.69,10.51q3,4.65,6.11,9.66l.4-7.74a.55.55,0,0,1,.56-.51.54.54,0,0,1,.51.56l-.49,9.31q2.22,3.66,4.42,7.53l1.22-6.55a.53.53,0,0,1,.62-.43.55.55,0,0,1,.43.63l-1.45,7.79q2,3.58,4,7.34l1-4.21a.54.54,0,0,1,.65-.4.53.53,0,0,1,.39.65L368.67,245c1,1.88,2,3.81,3,5.76l2-3.4a.53.53,0,0,1,.92.54l-2.32,4q1.22,2.4,2.44,4.86l-1.52.58C372.4,255.75,371.62,254.2,370.85,252.67Z" transform="translate(0 0)"/><path class="cls-3" d="M425.78,435.56q.29-7.2,1.09-13.91t2.09-13.1c3.21-15.65,8.6-28.85,15.65-39.85a93.75,93.75,0,0,1,28-28.28,106.6,106.6,0,0,1,32.89-14,139.71,139.71,0,0,1,38.93-3.68c4.45.18,8.92.55,13.37,1.1s9,1.29,13.43,2.2h0a1.85,1.85,0,0,1,1.45,2.19l0,.12c-.39,1.72-8.66,38.62-30.7,70.3-22.29,32-58.61,58.77-115,38.76a1.88,1.88,0,0,1-.94-.74,1.9,1.9,0,0,1-.29-1.12Zm144.8-106.62a195.83,195.83,0,0,0-24.88,8.83c4.78,1.42,15.59,4.73,20.37,6.88,2.54-7.75,4-13.46,4.51-15.71Zm-5.08,17.41h0c-5.52-2.53-20.15-6.83-22.34-7.47-6.62,2.89-14.12,6.5-22.16,10.93l37.6,14.6c2.84-6.58,5.13-12.74,6.92-18ZM557.87,366,519,350.92a269.2,269.2,0,0,0-23.49,14.85c7.68,3.32,44.38,19.31,50.45,23.3a199.44,199.44,0,0,0,11.94-23ZM545,390.58c-6.11-4.06-46.62-21.63-51.2-23.61-6.47,4.65-13,9.82-19.55,15.54l57.56,25.86.19.12c3-3.52,5.81-7.19,8.41-10.93,1.6-2.3,3.13-4.64,4.59-7Zm-14.19,19.3-58-26.08c-5.08,4.53-10.13,9.4-15.09,14.63,9.36,4.4,57.45,25.58,57.59,25.65a.76.76,0,0,1,.33.25,110.66,110.66,0,0,0,15.2-14.45Zm-16.72,15.61c-5.09-2.25-50.1-22.09-57.67-25.7q-6.39,6.84-12.5,14.51c11.11,7.16,49.53,21.94,49.65,22a.87.87,0,0,1,.49.47,86.29,86.29,0,0,0,20-11.26Zm-22.16,12.07c-6.16-2.4-39-15.28-49.12-21.86q-3.9,5-7.64,10.32c4.31,2.3,23.69,12.38,36.62,15.21a.88.88,0,0,1,.69.72,80,80,0,0,0,19.45-4.39Zm-23.41,4.69c-13.16-3.62-30.69-12.79-34.37-14.76q-2.83,4.11-5.55,8.44c14.66,5.09,27.93,6.94,39.92,6.32Zm-40.74-8.36q2.52-4,5.13-7.74c-1.23-5.22-1.59-14-1.69-19-.13.59-.25,1.18-.38,1.78-.84,4.12-1.54,8.43-2.06,12.93q-.69,5.78-1,12Zm4.5-31.22a.88.88,0,0,1,.68.86s0,13,1.35,20.62q3.6-5.11,7.37-9.89a172.81,172.81,0,0,1-2.28-32,119.62,119.62,0,0,0-7.12,20.39Zm8.46-23.21a.9.9,0,0,1,.51.84,169.7,169.7,0,0,0,1.92,32.09q5.9-7.36,12.08-13.95c-.69-3.2-4.64-22.19-3.93-35.89q-2.67,3.42-5.09,7.18a102.25,102.25,0,0,0-5.49,9.73Zm12.1-18.81a.88.88,0,0,1,.33.76c-.92,12.37,2.44,30,3.57,35.45,4.88-5.14,9.86-9.92,14.87-14.38-6-17.72-5.67-31.56-5.45-35a91.43,91.43,0,0,0-13.32,13.16Zm15-14.45a.88.88,0,0,1,.19.63c0,.05-1.5,14.63,5.06,34.37,6.54-5.74,13.12-10.92,19.61-15.59-2.65-8.42-3.82-28.78-4-31.56a98.43,98.43,0,0,0-15,8q-3,2-5.9,4.17Zm22.58-12.86a1.09,1.09,0,0,1,.07.3c0,.07,1.09,21.74,3.74,30.88A269.33,269.33,0,0,1,518,349.46a100.39,100.39,0,0,1,.15-23.5A122.51,122.51,0,0,0,506,328.3a113.21,113.21,0,0,0-15.61,5Zm29.54-7.63V326a98.64,98.64,0,0,0-.28,22.57c8.18-4.53,15.82-8.22,22.57-11.17a64.92,64.92,0,0,1,1.19-12.71,145.7,145.7,0,0,0-23.48,1.07Zm25.27-1a.59.59,0,0,1,0,.13,64.74,64.74,0,0,0-1.2,11.73,208.66,208.66,0,0,1,24.95-9c-3.73-.72-7.51-1.32-11.31-1.79C553.51,325.26,549.36,324.91,545.19,324.72Z" transform="translate(0 0)"/><path class="cls-3" d="M320.59,449.21q-2.29-2.1-4.84-4.23c-27.9-23.23-47.46-52.61-35.08-68.06,10.68-13.31,43.46,11.69,69.58,72.29Z" transform="translate(0 0)"/><path class="cls-4" d="M287.39,384.51a1.23,1.23,0,0,1,1.3-2.09,86.88,86.88,0,0,1,8.79,6.5l-2.91-6.45a.82.82,0,1,1,1.5-.67l4.32,9.58c2.44,2.11,5.16,4.62,8.06,7.53l-2.16-8.24a.83.83,0,0,1,1.6-.41l2.88,11c3,3.1,6.09,6.61,9.27,10.54l-1.61-7.22a.82.82,0,0,1,1.61-.36l2.34,10.54c3.25,4.21,6.55,8.85,9.77,14l-.76-7.05a.82.82,0,1,1,1.63-.18L334.16,432c2.95,4.9,5.83,10.18,8.56,15.88l.48-4.18a.82.82,0,0,1,1.63.19l-.61,5.31h-3.59l-.33-.69c-2.92-.48-12.23-1.89-16.58-1.3a.82.82,0,1,1-.23-1.62c4.09-.56,12.14.53,15.93,1.12q-2.69-5.42-5.52-10.32c-2.88-.54-12.34-2.14-19.77-1.27a.82.82,0,1,1-.19-1.63c6.69-.78,14.95.37,18.88,1-.95-1.6-1.9-3.15-2.86-4.67a79.92,79.92,0,0,0-23.74-2.11.82.82,0,1,1-.13-1.64,81.62,81.62,0,0,1,22.59,1.76A177.15,177.15,0,0,0,318,413.25c-3.69,0-18,.13-25.22,1.63a.82.82,0,1,1-.34-1.6c6.64-1.4,19.14-1.63,24.21-1.67-2.66-3.2-5.27-6.1-7.77-8.71-3.53.35-16.58,1.67-19.73,2.17a.82.82,0,1,1-.26-1.62c2.88-.46,13.82-1.58,18.53-2.06-3.3-3.36-6.37-6.19-9.08-8.52-3.31.54-11.28,1.87-13.25,2.33a.82.82,0,1,1-.38-1.59c1.75-.42,8.2-1.5,12-2.13A89.35,89.35,0,0,0,287.39,384.51Z" transform="translate(0 0)"/><path class="cls-3" d="M225.52,439.11c-.21-.95-.43-1.89-.65-2.82-3.74-15.53-9.58-28.55-17-39.3a93.9,93.9,0,0,0-29-27.31,106.88,106.88,0,0,0-33.33-12.86,140.19,140.19,0,0,0-39-2.34c-4.44.33-8.89.86-13.33,1.56s-9,1.6-13.34,2.65h0a1.84,1.84,0,0,0-1.15.84,1.88,1.88,0,0,0-.23,1.4l0,.12c.44,1.71,10,38.3,33.08,69.21,2.25,3,4.64,6,7.15,8.85h2.59c-2.91-3.23-5.64-6.58-8.2-10-1.68-2.25-3.29-4.53-4.83-6.82,6-4.27,45.86-23.21,50.37-25.35,6.62,4.43,13.36,9.37,20.07,14.87l-55.6,27.3h4l53.07-26.06c5.23,4.35,10.45,9.05,15.58,14.1-3.74,1.92-13.76,6.81-24.35,12h4.06c9.84-4.79,18.65-9.1,21.61-10.64q5.07,5.07,10,10.64h2.37q-5.53-6.33-11.26-12c.58-3.21,3.88-22.33,2.7-36q2.79,3.33,5.33,7a101.56,101.56,0,0,1,5.82,9.53.9.9,0,0,0-.48.86,169.66,169.66,0,0,1-.64,30.64h1.78a172.66,172.66,0,0,0,.78-28.72,118.42,118.42,0,0,1,7.81,20.13.9.9,0,0,0-.65.89s.13,3.39.1,7.7h1.78c0-1.54,0-2.95,0-4.14.15.58.3,1.17.44,1.76.19.79.37,1.58.55,2.38ZM80.62,361.55a197.86,197.86,0,0,1,25.16,8c-4.72,1.59-15.42,5.26-20.12,7.57-2.81-7.65-4.43-13.32-5-15.55Zm5.67,17.23h0c5.42-2.71,19.91-7.51,22.06-8.22,6.72,2.66,14.34,6,22.52,10.16L93.82,396.59c-3.07-6.48-5.56-12.56-7.53-17.81Zm8.29,19.41L133,381.76a268.58,268.58,0,0,1,24,14c-7.55,3.59-43.68,20.81-49.61,25a199.14,199.14,0,0,1-12.73-22.62Zm104.79-9a.88.88,0,0,0-.31.77c1.35,12.33-1.41,30.08-2.35,35.55q-7.59-7.46-15.35-13.87c5.41-17.91,4.58-31.73,4.25-35.15a91.24,91.24,0,0,1,13.76,12.7ZM183.92,375.3a.89.89,0,0,0-.16.64s2,14.56-3.89,34.52c-6.73-5.52-13.48-10.47-20.13-14.92,2.36-8.5,2.83-28.89,2.89-31.67a98.71,98.71,0,0,1,15.25,7.46c2.06,1.24,4.08,2.56,6,4Zm-23-12.08a.73.73,0,0,0-.06.3c0,.07-.34,21.76-2.68,31a272.49,272.49,0,0,0-24.28-14.24,100.24,100.24,0,0,0-1-23.48q6.18.68,12.21,1.93a113.29,113.29,0,0,1,15.77,4.51Zm-29.78-6.62a1,1,0,0,0,0,.24,100.19,100.19,0,0,1,1,22.55c-8.34-4.25-16.1-7.68-22.94-10.4a64.25,64.25,0,0,0-1.63-12.65,144.07,144.07,0,0,1,23.51.26Zm-25.29-.13a.78.78,0,0,0,0,.14,64,64,0,0,1,1.59,11.68,209.28,209.28,0,0,0-25.24-8.18c3.71-.85,7.47-1.58,11.25-2.17Q99.59,357,105.85,356.47Z" transform="translate(0 0)"/><path class="cls-6" d="M651.87,120.31a8.37,8.37,0,0,1,3.38-3.52,5.24,5.24,0,0,0,2.55-3.44,22.05,22.05,0,0,0,.52-5.74,1.32,1.32,0,0,1,1.32-1.32h2.26a2.19,2.19,0,0,1,.67.11,4.86,4.86,0,0,1,2.45,2.28,8.69,8.69,0,0,1,1.07,4.18,9.49,9.49,0,0,1-.45,2.85c-.2.64-.75,2.51-.49,3.15a1,1,0,0,0,.38.06h5.66a7.76,7.76,0,0,1,1.92.23,4.6,4.6,0,0,1,2.27,1.35,4.37,4.37,0,0,1,1,3,8.14,8.14,0,0,1-.2,1.7c.81,2.1,1,4.71-.68,6.43a5.22,5.22,0,0,1-1.8,4.69,5.54,5.54,0,0,1-5.44,4H657.92a8.71,8.71,0,0,1-5-2,3,3,0,0,1-.77,1.32l0,0a2.9,2.9,0,0,1-2,.81H645.4a3,3,0,0,1-2.94-2.94V122.66a2.92,2.92,0,0,1,.88-2.09l0,0a2.9,2.9,0,0,1,2-.81h4.71a2.94,2.94,0,0,1,1.76.59ZM653,134.93c1.19,1.2,3.19,2.77,4.88,2.77h10.37a3,3,0,0,0,3-2.51,1.38,1.38,0,0,1,.71-.92c1-.47,1-2.05.85-2.93a1.3,1.3,0,0,1,.5-1.33c1.25-.92.83-2.92.29-4.11a1.33,1.33,0,0,1-.11-1,5.56,5.56,0,0,0,.23-1.46,1.83,1.83,0,0,0-.38-1.24,1.91,1.91,0,0,0-1-.54,4.73,4.73,0,0,0-1.24-.15h-5.66a2.72,2.72,0,0,1-2.8-1.65c-.59-1.43,0-3.58.4-5a6.93,6.93,0,0,0,.32-2.07,5.89,5.89,0,0,0-.72-2.88,2.94,2.94,0,0,0-.9-1H661a20.66,20.66,0,0,1-.61,5.14,7.75,7.75,0,0,1-3.85,5c-2,1.05-3.11,3.61-3.45,5.73v10.1Zm-2.93-12.57H645.4a.24.24,0,0,0-.18.06l0,0a.27.27,0,0,0-.09.21v14.88a.31.31,0,0,0,.3.3h4.71a.3.3,0,0,0,.18-.05l0,0a.27.27,0,0,0,.09-.21V122.66a.31.31,0,0,0-.09-.21A.29.29,0,0,0,650.11,122.36Z" transform="translate(0 0)"/><path class="cls-6" d="M270.64,200.73a8.43,8.43,0,0,0-3.38-3.52,5.21,5.21,0,0,1-2.55-3.44,21.63,21.63,0,0,1-.53-5.74,1.32,1.32,0,0,0-1.31-1.32h-2.26a2.25,2.25,0,0,0-.68.11,4.83,4.83,0,0,0-2.44,2.28,8.46,8.46,0,0,0-1.07,4.17,9.59,9.59,0,0,0,.44,2.86c.2.64.76,2.51.5,3.15a1,1,0,0,1-.39.05h-5.65a7.27,7.27,0,0,0-1.92.24,4.63,4.63,0,0,0-2.28,1.35,4.41,4.41,0,0,0-1,3,7.52,7.52,0,0,0,.2,1.7c-.82,2.1-1,4.71.68,6.43a5.2,5.2,0,0,0,1.8,4.69,5.54,5.54,0,0,0,5.43,4h10.37a8.71,8.71,0,0,0,5-2,3,3,0,0,0,.78,1.32l.05,0a2.88,2.88,0,0,0,2,.8h4.72a2.88,2.88,0,0,0,2.07-.86A2.92,2.92,0,0,0,280,218V203.08a2.94,2.94,0,0,0-.88-2.1l0,0a3,3,0,0,0-2-.8h-4.72a2.93,2.93,0,0,0-1.75.59Zm-1.18,14.62c-1.19,1.2-3.18,2.77-4.88,2.77H254.21a3,3,0,0,1-3-2.52,1.32,1.32,0,0,0-.7-.91c-1-.48-1-2.05-.85-2.93a1.31,1.31,0,0,0-.51-1.33c-1.25-.92-.82-2.92-.29-4.11a1.28,1.28,0,0,0,.11-1,6,6,0,0,1-.22-1.46,1.88,1.88,0,0,1,.37-1.24,2,2,0,0,1,1-.55,5.18,5.18,0,0,1,1.24-.14H257a2.7,2.7,0,0,0,2.8-1.66c.59-1.42,0-3.57-.39-5a6.89,6.89,0,0,1-.33-2.07,5.92,5.92,0,0,1,.72-2.88,3.05,3.05,0,0,1,.91-1h.88a20.68,20.68,0,0,0,.61,5.15,7.79,7.79,0,0,0,3.84,5c1.95,1,3.12,3.6,3.45,5.72v10.11Zm2.93-12.57h4.72a.32.32,0,0,1,.18.05l0,0a.31.31,0,0,1,.09.21V218a.33.33,0,0,1-.09.21.29.29,0,0,1-.21.09h-4.72a.24.24,0,0,1-.17-.06l0,0a.29.29,0,0,1-.09-.21V203.08a.31.31,0,0,1,.09-.22A.3.3,0,0,1,272.39,202.78Z" transform="translate(0 0)"/><path class="cls-7" d="M303.43,82.06a1.25,1.25,0,0,1,2.5,0v5.62a1.25,1.25,0,0,1-2.5,0V82.06Zm-8.52,4.56a1.25,1.25,0,0,1,1.77-1.76l4,4a1.25,1.25,0,1,1-1.76,1.77l-4-4Zm-2.8,9.26a1.25,1.25,0,0,1,0-2.5h5.63a1.25,1.25,0,0,1,0,2.5Zm4.57,8.52a1.25,1.25,0,0,1-1.77-1.77l4-4a1.24,1.24,0,1,1,1.76,1.76l-4,4Zm9.25,2.8a1.25,1.25,0,0,1-2.5,0v-5.63a1.25,1.25,0,0,1,2.5,0v5.63Zm8.52-4.57a1.25,1.25,0,0,1-1.77,1.77l-4-4a1.25,1.25,0,0,1,1.77-1.76l4,4Zm2.8-9.25a1.25,1.25,0,0,1,0,2.5h-5.62a1.25,1.25,0,0,1,0-2.5Zm-4.57-8.52a1.25,1.25,0,0,1,1.77,1.76l-4,4a1.25,1.25,0,0,1-1.77-1.77Z" transform="translate(0 0)"/><rect class="cls-8" x="563.12" y="80.9" width="9.44" height="9.44" rx="2.2"/><rect class="cls-8" x="545.65" y="80.9" width="9.44" height="9.44" rx="2.2"/><rect class="cls-8" x="528.19" y="80.9" width="9.44" height="9.44" rx="2.2"/><path class="cls-8" d="M512.93,80.9h5a2.2,2.2,0,0,1,2.2,2.2v5A2.21,2.21,0,0,1,518,90.34h-5a2.2,2.2,0,0,1-2.2-2.2v-5A2.2,2.2,0,0,1,512.93,80.9Z"/><rect class="cls-8" x="493.26" y="80.9" width="9.44" height="9.44" rx="2.2"/><rect class="cls-8" x="475.8" y="80.9" width="9.44" height="9.44" rx="2.2"/><rect class="cls-8" x="527.56" y="61.86" width="9.44" height="9.44" rx="2.2"/><rect class="cls-8" x="510.1" y="61.86" width="9.44" height="9.44" rx="2.2"/><rect class="cls-8" x="492.63" y="61.86" width="9.44" height="9.44" rx="2.2"/><rect class="cls-8" x="510.73" y="101.36" width="9.44" height="9.44" rx="2.2"/><rect class="cls-8" x="493.26" y="101.36" width="9.44" height="9.44" rx="2.2"/><path class="cls-7" d="M618.36,67.62a1.25,1.25,0,0,1,2.5,0v5.62a1.25,1.25,0,1,1-2.5,0V67.62Zm-8.52,4.56a1.25,1.25,0,0,1,1.77-1.77l4,4a1.27,1.27,0,0,1,0,1.77,1.25,1.25,0,0,1-1.77,0l-4-4ZM607,81.44a1.25,1.25,0,0,1,0-2.5h5.63a1.25,1.25,0,0,1,0,2.5ZM611.61,90a1.27,1.27,0,0,1-1.77,0,1.25,1.25,0,0,1,0-1.77l4-4a1.25,1.25,0,0,1,1.77,0,1.27,1.27,0,0,1,0,1.77l-4,4Zm9.25,2.8a1.25,1.25,0,0,1-2.5,0V87.13a1.25,1.25,0,0,1,2.5,0v5.63Zm8.52-4.57A1.25,1.25,0,0,1,627.62,90l-4-4a1.25,1.25,0,0,1,1.77-1.77l4,4Zm2.8-9.25a1.25,1.25,0,0,1,0,2.5h-5.62a1.25,1.25,0,0,1,0-2.5Zm-4.56-8.53a1.25,1.25,0,0,1,1.76,1.77l-4,4a1.25,1.25,0,1,1-1.77-1.77Z" transform="translate(0 0)"/><path class="cls-7" d="M251.4,96.44v2h2A1.55,1.55,0,0,1,255,100h0a1.55,1.55,0,0,1-1.54,1.54h-2v2a1.55,1.55,0,0,1-1.54,1.54h0a1.55,1.55,0,0,1-1.54-1.54v-2h-2a1.55,1.55,0,0,1-1.54-1.54h0a1.55,1.55,0,0,1,1.54-1.54h2v-2a1.54,1.54,0,0,1,1.54-1.54h0A1.54,1.54,0,0,1,251.4,96.44Z" transform="translate(0 0)"/><path class="cls-7" d="M518.32,206v2h2a1.54,1.54,0,0,1,1.54,1.54h0a1.55,1.55,0,0,1-1.54,1.54h-2v2a1.54,1.54,0,0,1-1.54,1.54h0a1.54,1.54,0,0,1-1.54-1.54v-2h-2a1.55,1.55,0,0,1-1.54-1.54h0a1.55,1.55,0,0,1,1.54-1.54h2v-2a1.54,1.54,0,0,1,1.54-1.54h0A1.54,1.54,0,0,1,518.32,206Z" transform="translate(0 0)"/><path class="cls-7" d="M694.56,294.92v2h2a1.54,1.54,0,0,1,1.54,1.54h0a1.54,1.54,0,0,1-1.54,1.54h-2v2A1.55,1.55,0,0,1,693,303.6h0a1.55,1.55,0,0,1-1.54-1.54v-2h-2a1.54,1.54,0,0,1-1.54-1.54h0a1.54,1.54,0,0,1,1.54-1.54h2v-2a1.54,1.54,0,0,1,1.54-1.54h0A1.55,1.55,0,0,1,694.56,294.92Z" transform="translate(0 0)"/><path class="cls-7" d="M299.31,267.54v2h2a1.55,1.55,0,0,1,1.54,1.54h0a1.55,1.55,0,0,1-1.54,1.54h-2v2a1.54,1.54,0,0,1-1.54,1.54h0a1.54,1.54,0,0,1-1.54-1.54v-2h-2a1.54,1.54,0,0,1-1.54-1.54h0a1.54,1.54,0,0,1,1.54-1.54h2v-2a1.54,1.54,0,0,1,1.54-1.53h0A1.54,1.54,0,0,1,299.31,267.54Z" transform="translate(0 0)"/><path class="cls-7" d="M80.3,183.7v2h2a1.54,1.54,0,0,1,1.54,1.54h0a1.54,1.54,0,0,1-1.54,1.54h-2v2a1.55,1.55,0,0,1-1.54,1.54h0a1.54,1.54,0,0,1-1.54-1.54v-2h-2a1.54,1.54,0,0,1-1.54-1.54h0a1.54,1.54,0,0,1,1.54-1.54h2v-2a1.54,1.54,0,0,1,1.54-1.53h0A1.55,1.55,0,0,1,80.3,183.7Z" transform="translate(0 0)"/><path class="cls-9" d="M626.62,171.67s8,12.73,9,26.2-8.89,14-8.89,14-2.61,25.9-31.05,26.09S552.78,226.45,552.3,219c0,0-9.64-3.36-9.91-11.91s9-20.61,5.36-29.13S620.58,163.1,626.62,171.67Z" transform="translate(0 0)"/><path class="cls-9" d="M580.61,118.37s-14.15-7.43-24.82-3.51-17.19,18.75-18,26.24,7.39,21.57,7.39,21.57-4,7.62,2.44,12.49,17-2.91,17-2.91l16.9-54.85Z" transform="translate(0 0)"/><path class="cls-10" d="M524.37,339.35s-7.27,29.31-9,34.65-.65,59.37-.65,59.37l9,5s37.21-47.48,37.21-50.26-11.33-31.66-11.33-31.66Z" transform="translate(0 0)"/><path class="cls-11" d="M526.35,248.66s-4.05,2-6.2,9.48-9.65,67.11-9.65,67.11l42.2,17.52s.4-62-.21-64.41S536.24,248.64,526.35,248.66Z" transform="translate(0 0)"/><path class="cls-7" d="M559.46,354.24s-2.42,7.84-3.12,9.26-2.35.32-2.35.32L507.36,339.1a1.82,1.82,0,0,1-.86-1.51c.06-.93,2.19-15,2.19-15s.51-1.31,1.68-1.24,39.45,16.52,39.45,16.52Z" transform="translate(0 0)"/><path class="cls-12" d="M546.12,357s-21.64,41.21-26.23,80.13,117.37,13.79,119.21,13.18,11.34-8,11.34-8-6.68-50.71-21.88-81.74Z" transform="translate(0 0)"/><path class="cls-13" d="M546,349.22s-.37,4.91-.53,5.91a2.46,2.46,0,0,0,.69,1.84s29.27,13.56,82.44,3.6c0,0,1.27-.5,1.38-1.46s-.47-8.1-.47-8.1Z" transform="translate(0 0)"/><path class="cls-10" d="M659.91,305.52l9.41,38.31s-15.61-1.31-16.26-2.59-6.41-19.89-6.41-19.89Z" transform="translate(0 0)"/><path class="cls-11" d="M643.11,232.1s10.27,4.14,12.57,9.5,14.33,54.06,16.63,64.63a1.39,1.39,0,0,1-.27,1.27c-.49.57-38.34,28.46-38.34,28.46a2.16,2.16,0,0,1-2-.38c-.77-.77-11-22.37-11-22.37Z" transform="translate(0 0)"/><path class="cls-7" d="M627,331.44s3.49,7.43,4.37,8.73,2.38,0,2.38,0l42.75-30.95a1.83,1.83,0,0,0,.65-1.61c-.19-.92-4.25-14.56-4.25-14.56a1.91,1.91,0,0,0-1.84-1c-1.15.22-36.78,21.83-36.78,21.83Z" transform="translate(0 0)"/><path class="cls-14" d="M566.34,227.67l-40,21s6.28,3.21,8.12,18.84,5.36,41.07,5.36,44.29-2.6,23.9-2.45,26.35,4,8.28,7.82,10.73S597.3,359,629.47,351c0,0,9.81-6,11.49-10.27s-1.37-27.12-1.53-29.57,8.13-51.79,9.35-60.68-3.37-16.85-5.67-18.39-42.51-11.76-42.51-11.76Z" transform="translate(0 0)"/><path class="cls-15" d="M623,247.31l-17.32,11-7.28-11Zm-72,10.16,14.54,3.21s3.11-5.56,3-6S551,257.47,551,257.47Z" transform="translate(0 0)"/><path class="cls-15" d="M633.57,348.24c2.91-2.12,6.44-5.07,7.39-7.5s.45-9.87-.19-16.81l-48.91-51.16s-10.45-1.93-5.67,11.76l29,36.79c.86,1.07,1.43,7.21-.83,11.84A36.22,36.22,0,0,0,618.9,326Z" transform="translate(0 0)"/><path class="cls-10" d="M569.63,218h0v.07h0c0,.48-.09,3.92-5.49,5.74-3.06,1,3.73,15.78-.3,16.15-3.1.28-2.61,3.89-2.61,3.89l9.11,10.76,15.16,18.27,16.35-17.81,6.34-30.69-3.32-.77s-4.73-.49-4.76-6h0l-.08-15.4a15.29,15.29,0,0,0-15.32-15.16h0a15.3,15.3,0,0,0-15.16,15.33Z" transform="translate(0 0)"/><path class="cls-12" d="M603.39,223.21c-1.39-.62-3.26-2.11-3.28-5.57h0L600,204.82l-30.46,3.68,0,8.52,32.5,15.11Z" transform="translate(0 0)"/><path class="cls-11" d="M600.1,215.27v5c0,2.37-18.67,56.84-18.67,56.84l3.07,5.6,22.37-24.21-2.37-7.36,21.22-2.37-15.25-28.66a7,7,0,0,0-2.79-2.45C606,217,600.1,215.27,600.1,215.27Z" transform="translate(0 0)"/><path class="cls-12" d="M553.45,169.86a9.74,9.74,0,1,1-9.64,9.83A9.74,9.74,0,0,1,553.45,169.86Z" transform="translate(0 0)"/><path class="cls-10" d="M584.1,120.37h0a33.43,33.43,0,0,1,33.64,33l.28,30.29a33.42,33.42,0,0,1-33,33.63h0a33.42,33.42,0,0,1-33.64-33L551.08,154A33.43,33.43,0,0,1,584.1,120.37Z" transform="translate(0 0)"/><path class="cls-16" d="M617.74,154.33l0,3.18c-.86,1.08-2.74,2.15-6,3.15-17.11,5.24-31.77-4.38-31.77-4.38l-3,.93c-5.29-2-15.24-14.19-15.24-14.19,5.24-4.28,35,2.35,40.63,3.85C605.87,147.8,615.25,150.87,617.74,154.33Z" transform="translate(0 0)"/><path class="cls-9" d="M575.43,194a8.77,8.77,0,0,0,17.53-.4h0a1.51,1.51,0,0,0-1.55-1.48l-14.46.33a1.52,1.52,0,0,0-1.48,1.55Z" transform="translate(0 0)"/><path class="cls-17" d="M578.86,200.7a8.75,8.75,0,0,0,10.14.39,5.86,5.86,0,0,0-10.14-.39Z" transform="translate(0 0)"/><path class="cls-18" d="M602.81,345.35a.61.61,0,0,1-.39-1.08,94,94,0,0,0,13-13.37c5.86-7.54,19.44-47.34,19.58-47.74a.62.62,0,0,1,.77-.38.63.63,0,0,1,.38.78c-.56,1.64-13.79,40.39-19.78,48.08a96.07,96.07,0,0,1-13.14,13.57A.56.56,0,0,1,602.81,345.35Z" transform="translate(0 0)"/><path class="cls-18" d="M539.74,314.12h-.08a.61.61,0,0,1-.52-.68l3.45-26.09a.6.6,0,0,1,.68-.53.62.62,0,0,1,.53.69l-3.46,26.09A.6.6,0,0,1,539.74,314.12Z" transform="translate(0 0)"/><path class="cls-18" d="M590.14,355.1a.61.61,0,0,1-.53-.31.6.6,0,0,1,.23-.83,14.25,14.25,0,0,0,7.61-12.43c0-3.16-1.9-36.19-2.73-38.15-.94-2.19-2.72-5.31-2.74-5.34a.62.62,0,0,1,.23-.83.61.61,0,0,1,.83.23c.07.13,1.83,3.21,2.79,5.46,1,2.4,2.83,36.74,2.83,38.63A15.46,15.46,0,0,1,590.43,355,.6.6,0,0,1,590.14,355.1Z" transform="translate(0 0)"/><path class="cls-18" d="M562.55,353a.64.64,0,0,1-.41-.16c-.69-.63-6.72-6.18-7.6-7.94s-.07-6.8,0-7.36a.61.61,0,0,1,.7-.49.61.61,0,0,1,.49.7c-.35,2-.69,5.49-.13,6.61.66,1.32,5.51,5.92,7.33,7.58a.61.61,0,0,1,0,.86A.62.62,0,0,1,562.55,353Z" transform="translate(0 0)"/><path class="cls-18" d="M619.59,353.53a.63.63,0,0,1-.37-.12.6.6,0,0,1-.12-.84,96.1,96.1,0,0,0,6.3-9.89.61.61,0,0,1,1.08.56,94.73,94.73,0,0,1-6.41,10A.58.58,0,0,1,619.59,353.53Z" transform="translate(0 0)"/><path class="cls-18" d="M579.88,354.67a.61.61,0,0,1-.49-.25,94.73,94.73,0,0,1-6.41-10,.61.61,0,0,1,1.08-.57,91.32,91.32,0,0,0,6.31,9.89.61.61,0,0,1-.49,1Z" transform="translate(0 0)"/><path class="cls-7" d="M591.58,192.09,578,192.4c-.18,1.51.55,3,1.57,3.32,1.24.37,11.07-.11,11.75-.9A5.09,5.09,0,0,0,591.58,192.09Z" transform="translate(0 0)"/><path class="cls-12" d="M603,183.89a4.45,4.45,0,1,0,4.64,4.26A4.45,4.45,0,0,0,603,183.89Z" transform="translate(0 0)"/><path class="cls-12" d="M567,185.41a4.45,4.45,0,1,0,4.64,4.25A4.45,4.45,0,0,0,567,185.41Z" transform="translate(0 0)"/><path class="cls-9" d="M563.48,167.49a1.23,1.23,0,0,1-1.25-2.13,11.28,11.28,0,0,1,10.59-.62,1.24,1.24,0,1,1-1.14,2.2C569.07,165.59,566,166.12,563.48,167.49Z" transform="translate(0 0)"/><path class="cls-9" d="M604.27,165c-2.63-1.06-5.8-1.2-8.22.47a1.24,1.24,0,1,1-1.4-2,11.28,11.28,0,0,1,10.58-.71,1.24,1.24,0,0,1-1,2.28Z" transform="translate(0 0)"/><path class="cls-9" d="M567.3,172h0a3,3,0,0,0-1.82.79,1.2,1.2,0,0,1-.82-.55.47.47,0,0,0-.8.48,2.05,2.05,0,0,0,1,.84l0,0a2.21,2.21,0,0,1-1.26-.67.46.46,0,1,0-.68.63,3,3,0,0,0,1.43.87h0a2.8,2.8,0,0,1-1.42-.36.47.47,0,0,0-.45.82,3.64,3.64,0,0,0,1.48.45l.65.06.22,3.52a2.93,2.93,0,0,0,3.1,2.73h0a2.93,2.93,0,0,0,2.73-3.1l-.23-3.8A2.93,2.93,0,0,0,567.3,172Z" transform="translate(0 0)"/><path class="cls-9" d="M600.78,169.92h0a2.94,2.94,0,0,1,1.9.56,1.2,1.2,0,0,0,.74-.65.47.47,0,0,1,.62-.24.46.46,0,0,1,.23.61,2,2,0,0,1-.88,1l0,0a2.24,2.24,0,0,0,1.17-.82.47.47,0,0,1,.65-.11.47.47,0,0,1,.1.65,2.94,2.94,0,0,1-1.31,1h0a2.83,2.83,0,0,0,1.37-.53.46.46,0,1,1,.54.75,3.65,3.65,0,0,1-1.4.64l-.64.13.22,3.52a2.94,2.94,0,0,1-2.74,3.1h0a2.93,2.93,0,0,1-3.1-2.73L598,173A2.93,2.93,0,0,1,600.78,169.92Z" transform="translate(0 0)"/><path class="cls-19" d="M582.47,181.32s-2.77,2.52-2.85,4.08,1.41,2.39,2.83,2.27S584,179.74,582.47,181.32Z" transform="translate(0 0)"/><polygon class="cls-11" points="569.63 216.68 592.51 297.74 563.4 263.41 564.47 257.05 549.91 258.28 558.42 227.86 569.62 215.53 569.63 216.68"/><path class="cls-10" d="M591.89,252s10.83.86,13.33,1.58,4.27,3.27,4.66,9.86,1.08,12.14,2.15,15c3.52,9.49,37.91,42.49,46.51,51.12,5.27,5.3,16,13.6,8.43,21.73-5.78,6.2-14.33,5.56-22.46-1.07-12-9.76-36.39-46.27-48.45-61.3-.61-.76-4.36-2.66-5.78-4.22s-3.44-9-3.78-9.8-3.66-1.63-4.34-2.45a7.76,7.76,0,0,1-1.11-3.35c-.06-.61,2-2.72,2-2.72s.45-3.72,1.24-4.36a6.17,6.17,0,0,1,2.11-1s.2-3.73,1-4.52a5.6,5.6,0,0,1,2.27-1.11S589.73,252.34,591.89,252Z" transform="translate(0 0)"/><path class="cls-20" d="M598.74,257h-.06l-9.08-1a.61.61,0,0,1-.54-.66.62.62,0,0,1,.67-.54l9.07,1a.59.59,0,0,1,.54.66A.61.61,0,0,1,598.74,257Z" transform="translate(0 0)"/><path class="cls-20" d="M595,263.12h-.1l-8.62-1.46a.6.6,0,0,1-.49-.7.61.61,0,0,1,.7-.5l8.61,1.46a.61.61,0,0,1,.49.71A.59.59,0,0,1,595,263.12Z" transform="translate(0 0)"/><path class="cls-20" d="M590.64,268.51h-.12L583,267a.61.61,0,0,1-.47-.72.59.59,0,0,1,.71-.47l7.57,1.52a.61.61,0,0,1-.12,1.2Z" transform="translate(0 0)"/><path class="cls-20" d="M590.39,278.6a.59.59,0,0,1-.47-.22,32.81,32.81,0,0,0-4.36-3.51.59.59,0,0,1-.15-.84.6.6,0,0,1,.84-.15,33.43,33.43,0,0,1,4.61,3.74.6.6,0,0,1-.47,1Z" transform="translate(0 0)"/><path class="cls-20" d="M597.62,289.46a5.13,5.13,0,0,1-2.57-.6.61.61,0,0,1,.64-1c.09.05,2,1.16,5.25-.45a.6.6,0,0,1,.54,1.08A8.66,8.66,0,0,1,597.62,289.46Z" transform="translate(0 0)"/><path class="cls-20" d="M610.61,281.74a.58.58,0,0,1-.26-.06.6.6,0,0,1-.28-.81c.68-1.44.5-5,.37-6.31a.6.6,0,0,1,.54-.66.59.59,0,0,1,.66.54c0,.2.49,4.92-.48,6.95A.61.61,0,0,1,610.61,281.74Z" transform="translate(0 0)"/><path class="cls-20" d="M614.68,314.51a.57.57,0,0,1-.48-.24c-2.52-3.29-8.87-11.85-13.51-18.11-2.73-3.68-4.88-6.59-5.1-6.86a13.63,13.63,0,0,0-1.93-1.36,20.69,20.69,0,0,1-3.83-2.83.61.61,0,1,1,.9-.82,20.28,20.28,0,0,0,3.57,2.63,10.88,10.88,0,0,1,2.23,1.62c.24.29,2.3,3.06,5.14,6.9,4.63,6.25,11,14.81,13.49,18.09a.61.61,0,0,1-.12.85A.57.57,0,0,1,614.68,314.51ZM612,279.05a.61.61,0,0,1-.57-.4c-1.27-3.44-1.89-10.16-2.19-15.19-.43-7.38-2.61-8.85-4.22-9.31-2.41-.7-13.09-1.56-13.2-1.57a.6.6,0,0,1-.56-.65.61.61,0,0,1,.65-.56c.45,0,10.92.88,13.44,1.61,3.12.91,4.74,4.21,5.1,10.41.42,7.1,1.15,12.23,2.11,14.84a.61.61,0,0,1-.35.78A.78.78,0,0,1,612,279.05Z" transform="translate(0 0)"/><path class="cls-21" d="M564.47,257.66h-.13a.61.61,0,0,1-.46-.73l1.5-6.78a.6.6,0,1,1,1.18.26l-1.5,6.78A.6.6,0,0,1,564.47,257.66Z" transform="translate(0 0)"/><path class="cls-21" d="M604.5,251.73a.62.62,0,0,1-.58-.41l-1.68-4.86a.6.6,0,0,1,.37-.77.61.61,0,0,1,.77.37l1.69,4.86a.61.61,0,0,1-.38.78A.63.63,0,0,1,604.5,251.73Z" transform="translate(0 0)"/><path class="cls-21" d="M642.62,309.43a.58.58,0,0,1-.19,0,.59.59,0,0,1-.39-.76l12.11-38a.62.62,0,0,1,.77-.39.6.6,0,0,1,.39.76l-12.12,38A.61.61,0,0,1,642.62,309.43Z" transform="translate(0 0)"/><path class="cls-21" d="M538.47,326.59a.6.6,0,0,1-.58-.42l-13.35-42.31a.61.61,0,0,1,.4-.76.6.6,0,0,1,.76.4l13.35,42.31a.61.61,0,0,1-.4.76Z" transform="translate(0 0)"/><path class="cls-21" d="M538.13,329.81a.6.6,0,0,1-.51-.27l-7.87-12a.61.61,0,0,1,1-.67l7.87,11.95a.6.6,0,0,1-.17.84A.58.58,0,0,1,538.13,329.81Z" transform="translate(0 0)"/><path class="cls-22" d="M583.53,364.67h0a.61.61,0,0,1-.57-.64l.42-9.77a.56.56,0,0,1,.64-.58.61.61,0,0,1,.58.63l-.43,9.78A.61.61,0,0,1,583.53,364.67Z" transform="translate(0 0)"/><path class="cls-22" d="M592.36,364.82a.61.61,0,0,1-.61-.6l-.08-9.69a.61.61,0,0,1,.61-.61h0a.62.62,0,0,1,.61.6l.07,9.69a.6.6,0,0,1-.6.61Z" transform="translate(0 0)"/><path class="cls-23" d="M587.58,434h-.05a.62.62,0,0,1-.56-.65c2.11-26-4-68.82-4-69.24a.6.6,0,0,1,.51-.69.59.59,0,0,1,.69.51c.06.43,6.17,43.42,4,69.51A.6.6,0,0,1,587.58,434Z" transform="translate(0 0)"/><path class="cls-23" d="M596.4,434.2h0a.6.6,0,0,1-.56-.65c2.11-26-4-68.81-4-69.24a.61.61,0,0,1,1.2-.17c.06.43,6.17,43.42,4,69.51A.62.62,0,0,1,596.4,434.2Z" transform="translate(0 0)"/><path class="cls-23" d="M542.69,434h-.11a.61.61,0,0,1-.48-.71c.1-.5,9.75-49.44,10-52.37a.58.58,0,0,1,.65-.55.61.61,0,0,1,.56.65c-.23,3-9.6,50.48-10,52.5A.61.61,0,0,1,542.69,434Z" transform="translate(0 0)"/><path class="cls-23" d="M573.75,434h0a.62.62,0,0,1-.61-.62c0-.83.26-20.4.48-22.12a.6.6,0,1,1,1.2.15c-.17,1.32-.38,15-.46,22A.62.62,0,0,1,573.75,434Z" transform="translate(0 0)"/><path class="cls-23" d="M629.65,392.07a.62.62,0,0,1-.61-.55c-1-9.66-7.42-29.46-7.48-29.66a.6.6,0,1,1,1.15-.37c.07.2,6.48,20.12,7.54,29.9a.6.6,0,0,1-.54.67Z" transform="translate(0 0)"/><path class="cls-23" d="M566.67,387.9a.61.61,0,0,1-.61-.6c-.09-8,3.09-23.89,3.23-24.56a.59.59,0,0,1,.71-.47.61.61,0,0,1,.48.71c0,.16-3.3,16.39-3.21,24.31a.6.6,0,0,1-.6.61Z" transform="translate(0 0)"/><path class="cls-23" d="M616.88,434h0a.62.62,0,0,1-.6-.62c.16-13.49-5.39-41.11-5.45-41.39a.6.6,0,0,1,.47-.71.61.61,0,0,1,.72.47c0,.28,5.64,28,5.47,41.65A.6.6,0,0,1,616.88,434Z" transform="translate(0 0)"/><path class="cls-9" d="M622,127.29c4.25,12.35-2.63,31.73,4.64,44.38-6.89-2.49-5.46,3.93-5.46,3.93-2.42-.73-3.28-6.66-3.28-6.66-7-2.35-7.86-11.15-7.86-11.15-13,6.19-29.65-3.65-29.65-3.65.87,1.6,1,6.63-4,2.6s-20-27-15.19-35.63c3.6-6.34,12.34-11,20.21-13.73C596,102.38,616.89,112.5,622,127.29Z" transform="translate(0 0)"/><path class="cls-9" d="M570.76,132.66s-5.55,20.08-15.38,25.66c-.33,4.31-1.75,10-6.86,10.51l-.17-9.4c-9.39-3.49,6.14-34.89,10.58-36.74,4.69-2,15.6-2.25,15.6-2.25Z" transform="translate(0 0)"/><path class="cls-24" d="M623.26,133.6c-5.48,3.63-13.12,5.5-23.15,1-14.81-6.72-26.13-17.48-37.65-20.83a20.15,20.15,0,0,0-6.67,1.14c-.47.18-.94.37-1.4.59,5.54.66,12.23,3.47,18.75,11.28,12.34,14.76,30.59,33.29,50,25.44C623.21,145.79,623.81,139.31,623.26,133.6Z" transform="translate(0 0)"/><path class="cls-25" d="M149.32,370.15l-1.47,7.22A26.83,26.83,0,0,0,137,390c-3.9,8.95-20,46.58-21.69,50.9-.23.58-.52,1.33-.83,2.18H262.8c.94-24.53-10.92-60.36-29.58-71.64Z" transform="translate(0 0)"/><path class="cls-26" d="M260.29,423.15l-.15,0c-1.63-.4-40.11-9.94-44.78-16.48s-10.69-26.7-11-27.56a.6.6,0,1,1,1.16-.34c.06.2,6.29,20.92,10.77,27.2s43.7,15.9,44.09,16a.61.61,0,0,1,.45.74A.62.62,0,0,1,260.29,423.15Z" transform="translate(0 0)"/><path class="cls-26" d="M162.22,456.25h0a.61.61,0,0,1-.6-.62c.61-58.32,9.79-75,10.18-75.67a.61.61,0,0,1,1.06.61c-.1.16-9.43,17.18-10,75.07A.61.61,0,0,1,162.22,456.25Z" transform="translate(0 0)"/><path class="cls-26" d="M138,414.57l-.13,0a.6.6,0,0,1-.46-.72c5.79-25.93,14.79-35.09,15.17-35.47a.6.6,0,0,1,.86,0,.61.61,0,0,1,0,.86c-.09.09-9.13,9.35-14.84,34.87A.61.61,0,0,1,138,414.57Z" transform="translate(0 0)"/><path class="cls-26" d="M189.19,398a.6.6,0,0,1-.6-.57c-.3-6.32-2.43-17.07-2.45-17.18a.61.61,0,0,1,1.19-.24c0,.11,2.16,11,2.47,17.36a.6.6,0,0,1-.58.63Z" transform="translate(0 0)"/><path class="cls-26" d="M229,398.62a.6.6,0,0,1-.58-.42c-3-9.23-7.48-21.41-7.52-21.53a.6.6,0,0,1,.36-.78.61.61,0,0,1,.78.36c0,.12,4.5,12.32,7.53,21.57a.61.61,0,0,1-.38.77Z" transform="translate(0 0)"/><path class="cls-26" d="M212,455.27a.59.59,0,0,1-.56-.38c-.09-.21-8.47-21-10.9-34.7a.6.6,0,0,1,.49-.7.59.59,0,0,1,.7.49c2.41,13.57,10.75,34.25,10.83,34.46a.59.59,0,0,1-.33.78A.64.64,0,0,1,212,455.27Z" transform="translate(0 0)"/><path class="cls-9" d="M133.86,157.51c-42.05-17.72-64.68,70.7,10.88,79.17,65.54,7.34,90.1-14.4,82.13-56.08s-69.26-24.21-69.26-24.21S141.67,163.28,133.86,157.51Z" transform="translate(0 0)"/><path class="cls-2" d="M66.84,253.8s.82-2.14,4.45-2S74.84,258,74.84,258l-5,3.7-4.44.47Z" transform="translate(0 0)"/><path class="cls-27" d="M135.52,227.1s-4.41,1-11.39,6.27-16.28,18-16.28,18-3.61-.56-5.74,1.31-6,5.91-6,5.91c-3.11-.7-8.84,1-8.84,1l-29.15,24.5s-5.67,6.22-7,11.6,14.39,18.18,19.19,21.17,19.14-.29,27.55,3.72S133,332.53,133,332.53s13.07-40.35,13-46.17S135.52,227.1,135.52,227.1Z" transform="translate(0 0)"/><path class="cls-7" d="M145.67,357.93s-.51,13.8-.49,15.18a5.87,5.87,0,0,0,4,4.84c15.77,4.41,69.22,2.62,83.75-5.16,1.6-.85,1.9-2.69,1.54-5.7-.45-3.86-1.34-7.79-2.48-8.88C230.18,356.53,145.67,357.93,145.67,357.93Z" transform="translate(0 0)"/><path class="cls-10" d="M174.29,218h0v.07h0c0,.48-.09,3-5.49,4.82-3.05,1-8.37,1.68-12.4,2-3.1.28-2.61,3.89-2.61,3.89l8.34,26.24h48.58l20.12-25-10.14-3.84-11.16-2.6s-4.73-.49-4.76-6h0l-.08-15.4a15.29,15.29,0,0,0-15.32-15.16h0a15.28,15.28,0,0,0-15.16,15.33Z" transform="translate(0 0)"/><path class="cls-12" d="M219.14,225.89l-9.61-2.24s-4.73-.49-4.76-6h0l-.08-15.4c0-.41,0-.82-.06-1.22-10.66,2.42-23.87,5.56-30.39,7.13l0,9.14L216,232Z" transform="translate(0 0)"/><path class="cls-12" d="M155.69,169.56a9.73,9.73,0,1,1-9.71,9.75A9.72,9.72,0,0,1,155.69,169.56Z" transform="translate(0 0)"/><path class="cls-12" d="M223.81,169.5l.71.13h0a9.73,9.73,0,1,1-8.15,1.82c-.3,2.87.1,6.43,3.76,6.84v-5.61A3.33,3.33,0,0,1,223.81,169.5Z" transform="translate(0 0)"/><path class="cls-2" d="M261.33,405.77s-15.86.38-26.22-6.42c0,0-3.63-2.65.36-10.39s16.7-1.46,17.77-.23,11.19,10.57,11.42,11.65S264.77,404.32,261.33,405.77Z" transform="translate(0 0)"/><path class="cls-10" d="M238.67,373l-1.07,40.44h0a19.57,19.57,0,0,1-1.77,3.6,19.23,19.23,0,0,0-2.57,5.7c-.48,2-2.36,11.8-2.4,12.2s3.11.49,4-1,3-5,3-5-.43,7.79-.43,8.27,5.35,1.44,6.15,1.68,7.14-2.09,7.14-2.09l4-1.44s.85-10.43.77-11.95-1.91-6-1.74-7.63h0l3.73-35.24S247.83,372.55,238.67,373Z" transform="translate(0 0)"/><path class="cls-10" d="M186.67,120.27h0a33.44,33.44,0,0,1,33.41,33.25l.07,30.29a33.42,33.42,0,0,1-33.24,33.41h0A33.42,33.42,0,0,1,153.5,184l-.08-30.29A33.44,33.44,0,0,1,186.67,120.27Z" transform="translate(0 0)"/><path class="cls-28" d="M153.46,170.67l0-17a34.48,34.48,0,0,1,.26-4.21c8.18-5.18,21.79-13.13,28.17-13.13,9.46,0,30,6.57,30,6.57l-5.15,2.26s-6.4-4.66-14.91.79C184.08,150.91,163.71,168.11,153.46,170.67Z" transform="translate(0 0)"/><path class="cls-9" d="M174.36,194.79a8.76,8.76,0,0,0,17.52-.28h0a1.52,1.52,0,0,0-1.53-1.49l-14.47.24a1.52,1.52,0,0,0-1.49,1.53Z" transform="translate(0 0)"/><path class="cls-17" d="M177.73,201.56a8.79,8.79,0,0,0,10.14.46,5.45,5.45,0,0,0-5.06-3.16A5.54,5.54,0,0,0,177.73,201.56Z" transform="translate(0 0)"/><path class="cls-7" d="M190.52,193l-13.6.22c-.19,1.51.53,3,1.55,3.33,1.24.38,11.07,0,11.75-.82A5.22,5.22,0,0,0,190.52,193Z" transform="translate(0 0)"/><path class="cls-12" d="M201.94,185.72a4.45,4.45,0,1,0,4.61,4.28A4.45,4.45,0,0,0,201.94,185.72Z" transform="translate(0 0)"/><path class="cls-12" d="M166,187a4.45,4.45,0,1,0,4.61,4.29A4.45,4.45,0,0,0,166,187Z" transform="translate(0 0)"/><path class="cls-9" d="M162.58,171.4a1.23,1.23,0,1,1-1.23-2.14,11.27,11.27,0,0,1,10.59-.55,1.24,1.24,0,0,1-1.15,2.19C168.19,169.53,165.06,170.05,162.58,171.4Z" transform="translate(0 0)"/><path class="cls-9" d="M203.39,169.14c-2.62-1.08-5.79-1.24-8.22.41a1.24,1.24,0,1,1-1.39-2.05,11.27,11.27,0,0,1,10.58-.64,1.24,1.24,0,0,1-1,2.28Z" transform="translate(0 0)"/><path class="cls-9" d="M166.37,173.59h0a2.94,2.94,0,0,0-1.82.78,1.18,1.18,0,0,1-.82-.55.46.46,0,0,0-.64-.17.47.47,0,0,0-.16.64,2.07,2.07,0,0,0,1,.85l0,0a2.1,2.1,0,0,1-1.25-.67.47.47,0,0,0-.66,0,.46.46,0,0,0,0,.65,3,3,0,0,0,1.42.88h0a3,3,0,0,1-1.43-.37.46.46,0,0,0-.63.17.48.48,0,0,0,.18.64,3.63,3.63,0,0,0,1.47.46l.66.06.19,3.52a2.93,2.93,0,0,0,3.08,2.76h0a2.93,2.93,0,0,0,2.76-3.08l-.21-3.81A3,3,0,0,0,166.37,173.59Z" transform="translate(0 0)"/><path class="cls-19" d="M181.48,183s-2.79,2.51-2.88,4.07,1.39,2.39,2.82,2.28S183,181.44,181.48,183Z" transform="translate(0 0)"/><path class="cls-11" d="M156.29,225.68l-19.64,1.23s-3.89-.24-5.24,5.91-7.09,45.46-7.29,51,5,26.59,5.49,39.46-2.55,21.49-2.51,24.55,18.08,14.59,18.08,14.59,42.48,10.37,81.17-2c10.57-3.38,13.34-10.7,15.93-23.07,1.61-7.68-5-28.43-5.5-39.45s12.15-63.48,12.15-63.48a123.38,123.38,0,0,0-22.63-7.13l-4.24-1.21s-7.53,18.52-31.12,20.25-32.34-19.62-32.64-20.82Z" transform="translate(0 0)"/><path class="cls-7" d="M126.74,262.7c-.26,1.86-.52,3.7-.76,5.46,50.15,15.77,107.2,5.41,107.2,5.41l.15,1,6,1.53.6-.41.35-1.79c-.34-1.34-1-3.18-1.83-3.18a39.08,39.08,0,0,1-5.39-1l-.14-1.05s-16.65,2.65-53.86,2c-24.44-.42-42.65-4.92-52.28-8Zm-1.18,8.61c9.76,3.11,25.34,8,54.26,8.5a469.63,469.63,0,0,0,53.86-2l.14,1a40,40,0,0,0,5.29,1c-.31,1.7-.6,3.34-.87,4.91l-4.11-1.05-.15-1s-59.36,9-109.13-5.94C125.06,275.13,125.29,273.29,125.56,271.31Z" transform="translate(0 0)"/><path class="cls-7" d="M161.3,223.91c9.42,19,39.24,19.82,52.84.3,0,0,.47-.87,2.12-.48s9.66,2.45,9.66,2.45a1.25,1.25,0,0,1,1,1c.12.87-10.48,22.32-39.9,22.32s-34.51-24-34.51-24,0-.63.85-.71S160,223.4,160,223.4,161,223.3,161.3,223.91Z" transform="translate(0 0)"/><path class="cls-27" d="M248.93,234.4s9.85,4.13,13.35,10.77c1.93,3.65,1.31,10.09,1.31,10.09s17.7,75.59,19.53,82.3,2.26,16.06-10.23,28.05c0,0-.85.7-.25,2.45s1.29,4.12,1.09,5.42-6.82,10.6-6.82,10.6l.27,17.47s-1,3.39-5.84,4.22c0,0,2.64-1.49,1.39-3s-19.25-11.13-23.21-11.53-6.28,4.08-4.41,8.11c0,0-2.18-1.11-2.24-4.64s.67-19.85.67-19.85a6.44,6.44,0,0,1,2.53-4.33,14.93,14.93,0,0,1-1.39-6.11s-7.18-7.86-7.55-13.68,7.53-25.25,8.18-30.32-.48-12.25-.66-15.16S237.06,236.57,248.93,234.4Z" transform="translate(0 0)"/><path class="cls-10" d="M108.77,213.79,88.83,266.46S77,275.28,72,276.74s-9.49-7.61-7-12.73,28.79-56.24,28.79-56.24Z" transform="translate(0 0)"/><path class="cls-12" d="M108.77,213.79,88.83,266.46S77,275.28,72,276.74s-9.49-7.61-7-12.73c.31-.64,1-2,2-3.9,2.27,5.65,5.11,5.36,6.13,5.28s15.64-5.13,15.64-5.13,12-34.73,11.47-36.17-6.37-9.41-8.51-12.24l.89-1.74c1-.32,2.35-.76,3.93-1.25Z" transform="translate(0 0)"/><path class="cls-7" d="M66.84,253.8s.85,12.54,2.51,14.75,4.55,2.13,6.79,1.43,12.84-6.32,14.18-7.46l1.14-3a7.84,7.84,0,0,1,.69,3.9c-.13,2.41-1.38,15.71-1.38,15.71s-.75,4.24-7.58,9.13-14.36,8.63-16.73,8.81-9.89-5.8-11-8.22-.65-6,.22-10.42S66.84,253.8,66.84,253.8Z" transform="translate(0 0)"/><path class="cls-26" d="M141.29,457.08h-.13a.61.61,0,0,1-.47-.72c0-.15,3-14.28,5.75-30a.61.61,0,0,1,.71-.49.6.6,0,0,1,.49.7c-2.73,15.77-5.73,29.92-5.76,30.06A.61.61,0,0,1,141.29,457.08Z" transform="translate(0 0)"/><path class="cls-23" d="M125.91,269.32a.61.61,0,0,1-.61-.57c0-.09-.48-9.11-2.52-12.62a.61.61,0,0,1,1-.61c2.19,3.76,2.66,12.78,2.68,13.17a.6.6,0,0,1-.57.63Z" transform="translate(0 0)"/><path class="cls-23" d="M115.79,253.44l-.17,0a46,46,0,0,0-7.83-1.42.6.6,0,0,1-.55-.65.64.64,0,0,1,.66-.56,46.6,46.6,0,0,1,8.07,1.46.61.61,0,0,1,.4.76A.59.59,0,0,1,115.79,253.44Z" transform="translate(0 0)"/><path class="cls-23" d="M121.92,321.16a.59.59,0,0,1-.58-.46c-.1-.38-9.54-38.84-13.77-49.1-4.12-10-11.53-12.37-11.6-12.4a.61.61,0,0,1,.35-1.16c.33.1,8,2.54,12.37,13.1,4.26,10.34,13.73,48.88,13.82,49.27a.61.61,0,0,1-.44.74Z" transform="translate(0 0)"/><path class="cls-23" d="M89.14,319.25a.6.6,0,0,1-.14-1.19c.13,0,12.4-3,12.4-13.44,0-11.34-.61-32.14-1.37-36.36-.69-3.86-5.65-5.34-5.7-5.35a.6.6,0,0,1-.41-.75.61.61,0,0,1,.74-.42c.24.07,5.74,1.69,6.56,6.3.77,4.29,1.39,25.2,1.39,36.58s-13.2,14.58-13.33,14.61A.36.36,0,0,1,89.14,319.25Z" transform="translate(0 0)"/><path class="cls-23" d="M89.75,300a.56.56,0,0,1-.25-.05.61.61,0,0,1-.31-.79c0-.08,3.16-7.29,2.86-12.45s-1.76-7.24-1.77-7.26a.61.61,0,1,1,1-.7c.06.09,1.68,2.42,2,7.89s-2.82,12.69-3,13A.6.6,0,0,1,89.75,300Z" transform="translate(0 0)"/><path class="cls-21" d="M145.18,363a.62.62,0,0,1-.61-.54c0-.41-4.33-40.7-10-60.64a.6.6,0,1,1,1.16-.33c5.73,20,10,60.43,10.08,60.84a.61.61,0,0,1-.54.67Z" transform="translate(0 0)"/><path class="cls-21" d="M129.05,336.21H129a.61.61,0,0,1-.53-.67c0-.16,1.77-15.9,2.07-20.89a.6.6,0,0,1,.64-.57.61.61,0,0,1,.57.65c-.3,5-2.06,20.78-2.08,20.94A.6.6,0,0,1,129.05,336.21Z" transform="translate(0 0)"/><path class="cls-21" d="M176.32,336.9a.61.61,0,0,1-.6-.57.59.59,0,0,1,.56-.64c20.15-1.51,48.77-19.65,49.06-19.83a.6.6,0,0,1,.83.18.61.61,0,0,1-.18.84c-.29.19-29.17,18.49-49.62,20Z" transform="translate(0 0)"/><path class="cls-21" d="M218.49,363.21A.63.63,0,0,1,218,363a.6.6,0,0,1,.08-.85c.05-.05,5.68-4.84,5.13-8.44a22.8,22.8,0,0,0-2.34-5.89c-1.32-2.65-2.69-5.39-3-8.23a.6.6,0,1,1,1.2-.15c.32,2.63,1.64,5.28,2.92,7.84a23.22,23.22,0,0,1,2.44,6.24c.66,4.27-5.29,9.34-5.54,9.55A.58.58,0,0,1,218.49,363.21Z" transform="translate(0 0)"/><path class="cls-21" d="M235.2,292.77a.6.6,0,0,1-.6-.53c0-.26-3.41-26-2.8-42.09a.66.66,0,0,1,.63-.58.6.6,0,0,1,.58.63c-.61,16,2.76,41.62,2.79,41.88a.61.61,0,0,1-.52.68Z" transform="translate(0 0)"/><path class="cls-21" d="M228.57,310a.6.6,0,0,1-.44-.2.59.59,0,0,1,0-.85c7-6.61,6.4-16,6.39-16.06a.61.61,0,0,1,.56-.65.62.62,0,0,1,.65.55c0,.41.71,10-6.77,17A.63.63,0,0,1,228.57,310Z" transform="translate(0 0)"/><path class="cls-23" d="M265.5,305.33a.6.6,0,0,1-.6-.56c-1.22-15.47-1.91-49.16-1.92-49.5a.62.62,0,0,1,.6-.62.61.61,0,0,1,.62.6c0,.34.69,34,1.9,49.43a.6.6,0,0,1-.55.65Z" transform="translate(0 0)"/><path class="cls-23" d="M234.48,324.53a.63.63,0,0,1-.19,0,.6.6,0,0,1-.38-.77l12.63-37.89a.59.59,0,0,1,.76-.39.62.62,0,0,1,.39.77l-12.63,37.89A.61.61,0,0,1,234.48,324.53Z" transform="translate(0 0)"/><path class="cls-23" d="M236.16,280.48a.57.57,0,0,1-.18,0,.61.61,0,0,1-.4-.76c.25-.81,6.27-19.89,9.37-23.77a.61.61,0,0,1,1,.76c-3,3.7-9.1,23.18-9.17,23.38A.6.6,0,0,1,236.16,280.48Z" transform="translate(0 0)"/><path class="cls-23" d="M268.72,344.45a.62.62,0,0,1-.32-.09c-.21-.13-21.64-13.05-28-11.58s-10.81,8.74-10.85,8.82a.61.61,0,0,1-.83.21.59.59,0,0,1-.21-.83c.18-.32,4.71-7.81,11.62-9.38s28.06,11.18,28.95,11.72a.61.61,0,0,1,.21.83A.63.63,0,0,1,268.72,344.45Z" transform="translate(0 0)"/><path class="cls-23" d="M272.43,367.39a.59.59,0,0,1-.58-.44c0-.11-3.17-11.21-10-16.08s-17.78-8-17.89-8a.62.62,0,0,1-.42-.75.6.6,0,0,1,.75-.42c.45.12,11.21,3.15,18.27,8.21s10.28,16.26,10.42,16.74a.61.61,0,0,1-.43.74A.44.44,0,0,1,272.43,367.39Z" transform="translate(0 0)"/><path class="cls-23" d="M234.68,365h-.06a.61.61,0,0,1-.54-.67c0-.18.51-4.68,3.91-7.11s19.7,3.39,21.55,4.06a.61.61,0,0,1,.36.78.6.6,0,0,1-.77.36c-6.76-2.44-18.29-5.75-20.44-4.21-2.95,2.1-3.4,6.21-3.41,6.25A.6.6,0,0,1,234.68,365Z" transform="translate(0 0)"/><path class="cls-23" d="M283.92,342.13a.61.61,0,0,1-.54-.33c-.4-.77-9.92-18.83-11.15-23.45a.62.62,0,0,1,.43-.74.61.61,0,0,1,.74.43c1.2,4.48,11,23,11.05,23.2a.6.6,0,0,1-.25.82A.72.72,0,0,1,283.92,342.13Z" transform="translate(0 0)"/><path class="cls-23" d="M231.59,361.14a.61.61,0,0,1-.59-.46c-.08-.33-2-8.32,1-13.08a.6.6,0,0,1,.83-.19.61.61,0,0,1,.19.84c-2.74,4.32-.87,12.06-.85,12.14a.61.61,0,0,1-.45.74Z" transform="translate(0 0)"/><path class="cls-23" d="M232.77,330a.62.62,0,0,1-.34-.11.61.61,0,0,1-.15-.85l14-20.06a.61.61,0,0,1,.84-.15.6.6,0,0,1,.15.85l-14,20.06A.59.59,0,0,1,232.77,330Z" transform="translate(0 0)"/><path class="cls-29" d="M130.75,156.38c29.38,36.85,53.71-37.65,79.95-7.37-5.52,9,1.67,18.22,5.52,20.84-1.38,8.27,3.93,11,3.93,11s.51-13.13,7.83-9.71c1.41-8.32,14.38-42-4.11-40.7-.08,0-.16.11-.22.07s0-.15,0-.22c-5.51-34.18-66.2-43.65-73.63,7.83C148.27,150,137.38,156.74,130.75,156.38Z" transform="translate(0 0)"/><path class="cls-10" d="M117.48,207.6a18.93,18.93,0,0,1,8.66-5.34c2-.5-1.57-7.51-7.52-2.89,0,0-3.42,1-4.16-.36s8.36-20,9.36-22.1a2.38,2.38,0,0,0-2.08-3.39c-.93.17-2.34,3.15-4.37,6.8s-4.37,7.72-4.89,7.89-1.33-.34-1-2.77,2.7-15.77,2.08-16.89-3-1.23-3.93.66-2.7,14.48-3.53,16.88l-.66,2.69a4.92,4.92,0,0,0-6,2.45s-4-1.68-5.75,2.25-4.24,12.59-1.72,17a15.59,15.59,0,0,0,11.73,6.91C111.05,217.86,113,212.46,117.48,207.6Z" transform="translate(0 0)"/><path class="cls-9" d="M201.45,178.87a3,3,0,0,0-.88-2.12,3,3,0,0,0-4.22,0,3,3,0,0,0-.87,2.12,1.2,1.2,0,0,1-2.4,0,5.38,5.38,0,0,1,9.18-3.81,5.33,5.33,0,0,1,1.19,1.8.88.88,0,0,0,.73-.14.33.33,0,0,1,.48.07.34.34,0,0,1-.06.48,1.51,1.51,0,0,1-.92.29v0a1.62,1.62,0,0,0,1-.11.35.35,0,0,1,.46.17.34.34,0,0,1-.17.45,2.15,2.15,0,0,1-1.21.19h0a2.15,2.15,0,0,0,1.07.15.34.34,0,1,1,.08.68,2.75,2.75,0,0,1-1.13-.1,1.2,1.2,0,0,1-1.19,1A1.19,1.19,0,0,1,201.45,178.87Z" transform="translate(0 0)"/><path class="cls-20" d="M93.33,204.77A3,3,0,0,1,90.66,203a.49.49,0,0,1,.87-.43,2,2,0,0,0,2,1.18c1.11-.11,2-1.11,2.44-2.67,1-3.61,3-10,3-10a.48.48,0,0,1,.6-.32.48.48,0,0,1,.32.61c0,.06-2,6.41-3,10-.53,2-1.76,3.23-3.28,3.39Z" transform="translate(0 0)"/><path class="cls-20" d="M98.75,205.06a3.6,3.6,0,0,1-1.66-.39c-1.68-.92-1.26-3.06-1.24-3.15a.49.49,0,0,1,.58-.37.47.47,0,0,1,.37.57c0,.06-.29,1.52.76,2.1a3,3,0,0,0,2.26.1,3.85,3.85,0,0,0,2.27-2c1.14-2.32,2.51-7.34,2.36-9.3a.47.47,0,0,1,.44-.52.48.48,0,0,1,.52.45c.17,2.13-1.24,7.32-2.45,9.79a4.72,4.72,0,0,1-2.85,2.48A4.6,4.6,0,0,1,98.75,205.06Z" transform="translate(0 0)"/><path class="cls-20" d="M104.31,197.39a.49.49,0,0,1-.32-.85,5.48,5.48,0,0,0,1.47-1.93.49.49,0,0,1,.59-.35.48.48,0,0,1,.35.59,6.25,6.25,0,0,1-1.77,2.42A.47.47,0,0,1,104.31,197.39Z" transform="translate(0 0)"/><path class="cls-20" d="M107.74,215a7,7,0,0,1-6.47-4.34c-.64-1.65-1.4-6,5.36-10.75a.48.48,0,0,1,.56.79c-4.37,3.07-6.2,6.57-5,9.61a6.11,6.11,0,0,0,6.27,3.68.48.48,0,1,1,.13,1A7.86,7.86,0,0,1,107.74,215Z" transform="translate(0 0)"/><path class="cls-20" d="M109.66,193.21a.5.5,0,0,1-.26-.08.49.49,0,0,1-.14-.68l3.42-5.17a.49.49,0,0,1,.67-.14.48.48,0,0,1,.14.67L110.07,193A.5.5,0,0,1,109.66,193.21Z" transform="translate(0 0)"/><path class="cls-7" d="M266.91,384.08c-5.63-1.51-12.6-6.94-19.88-12s-11-1.51-11-1.51a5,5,0,0,0-1.59,1.66,7.33,7.33,0,0,0-.94,2.67s-.72,16.33-.67,19.85,2.24,4.64,2.24,4.64c-1.65-3.55-.05-7.46,3.07-8.05a4.24,4.24,0,0,1,1.34-.06c2.12.21,8.27,3.07,13.72,5.91l2.3,1.22c3.72,2,6.71,3.81,7.19,4.4,1.25,1.51-1.4,3-1.4,3,4.82-.84,5.85-4.22,5.85-4.22Z" transform="translate(0 0)"/><path class="cls-24" d="M151.79,129.81c5.08,2.68,11.81,3.63,20.32-.23,14.88-6.76,26.1-17.77,37.71-20.41a38,38,0,0,1,3.33,2.59c-4.69,1.19-10,4.11-15.15,10.3-12.37,14.81-30.92,33.55-50.42,23.29a21.38,21.38,0,0,0,2.4-7.2A59.32,59.32,0,0,1,151.79,129.81Z" transform="translate(0 0)"/><path class="cls-9" d="M361.89,228.27c19.45,11,7,22.1,39.72,13.79s45.79-26,44.09-34.76c0,0,8.63-6.53,7.83-16.66-1.44-18.11-24.2-21.1-16.53-50.14C443,119,429.16,83.18,407.63,94c-16.16-26-66.78-6.06-69.44,28.92-1.41,18.48,16.9,25,8.85,60.46C343.1,200.7,342.45,217.29,361.89,228.27Z" transform="translate(0 0)"/><path class="cls-7" d="M315.33,277.67s-6,28.87-9.84,41.28-3.42,28.66,1.71,43.63c8.61,25.1,29.39,20.23,37.67,6.36a214,214,0,0,0,14.41-30.42l-16.9-49.41Z" transform="translate(0 0)"/><path class="cls-30" d="M347.72,344.19c-.25-.5-1.71-3.93-8.3-3.8s-8.62,7.93-8.37,12.05,1.14,11.29,7.29,9.51S350.58,355.23,347.72,344.19Z" transform="translate(0 0)"/><path class="cls-31" d="M346.15,349.44s.06-3.22-2.51-4-7.22-.21-8,4.81-.26,8,2.44,8.07S346.15,349.44,346.15,349.44Z" transform="translate(0 0)"/><path class="cls-32" d="M335.24,222.91s-6.44,1.4-9.43,7.17-14.07,49.57-14.28,50.58a3.3,3.3,0,0,0,.43,2.09s21.55,6.68,30.53,20.16S346.13,228.9,335.24,222.91Z" transform="translate(0 0)"/><path class="cls-33" d="M311.5,354.73a.6.6,0,0,1-.6-.56c0-.12-.74-12,12.29-19s19.55.69,19.61.76a.61.61,0,0,1-.94.77c-.24-.29-5.9-7-18.1-.46s-11.69,17.36-11.65,17.82a.6.6,0,0,1-.56.64Z" transform="translate(0 0)"/><path class="cls-33" d="M333.18,366.41a16.1,16.1,0,0,1-6.86-1.79.61.61,0,0,1-.29-.81.6.6,0,0,1,.81-.28c8.35,4,11.38-.38,11.5-.57a.62.62,0,0,1,.84-.17.61.61,0,0,1,.18.84C339.26,363.79,337.48,366.41,333.18,366.41Z" transform="translate(0 0)"/><path class="cls-33" d="M336.92,330a.67.67,0,0,1-.29-.08c-.12-.06-11.81-6.4-21.78-2a.62.62,0,0,1-.8-.31.6.6,0,0,1,.31-.8c10.53-4.67,22.36,1.75,22.86,2a.61.61,0,0,1,.24.82A.62.62,0,0,1,336.92,330Z" transform="translate(0 0)"/><path class="cls-33" d="M304,325.46a.69.69,0,0,1-.24,0,.61.61,0,0,1-.32-.8c.14-.31,3.42-7.59,15.81-5.84a.61.61,0,0,1,.52.69.6.6,0,0,1-.69.51c-11.49-1.61-14.49,5-14.52,5.12A.61.61,0,0,1,304,325.46Z" transform="translate(0 0)"/><path class="cls-33" d="M335.05,325.75a.62.62,0,0,1-.45-.2,8.61,8.61,0,0,0-4.89-2.42.6.6,0,0,1-.52-.68.59.59,0,0,1,.67-.52,9.71,9.71,0,0,1,5.65,2.81.6.6,0,0,1-.05.85A.59.59,0,0,1,335.05,325.75Z" transform="translate(0 0)"/><path class="cls-33" d="M307.44,363.87a.61.61,0,0,1-.59-.47c-.15-.62-3.54-15.35-.31-24.19a.62.62,0,0,1,.78-.36.6.6,0,0,1,.36.78c-3.11,8.49.32,23.34.35,23.49a.61.61,0,0,1-.45.73Z" transform="translate(0 0)"/><path class="cls-7" d="M470.88,277.67s6,28.87,9.84,41.28,3.42,28.66-1.71,43.63c-8.61,25.1-29.39,20.23-37.67,6.36a214,214,0,0,1-14.41-30.42l16.9-49.41Z" transform="translate(0 0)"/><path class="cls-30" d="M438.49,344.19c.25-.5,1.71-3.93,8.3-3.8s8.62,7.93,8.37,12.05S454,363.73,447.87,362,435.63,355.23,438.49,344.19Z" transform="translate(0 0)"/><path class="cls-31" d="M440.07,349.44s-.07-3.22,2.5-4,7.22-.21,8,4.81.26,8-2.44,8.07S440.07,349.44,440.07,349.44Z" transform="translate(0 0)"/><path class="cls-32" d="M451,222.91s6.44,1.4,9.43,7.17,14.07,49.57,14.28,50.58a3.37,3.37,0,0,1-.43,2.09s-21.55,6.68-30.53,20.16S440.08,228.9,451,222.91Z" transform="translate(0 0)"/><path class="cls-10" d="M393.11,244.63h27.11l7.7-25.6s.5-3.61-2.6-3.89a56.4,56.4,0,0,1-11.77-2.69c-5.39-1.82-5.47-4.34-5.49-4.82h0v-.07h0l.09-15.62a15,15,0,1,0-30.09,0l.09,15.62h0v.07h0c0,.48-.1,3-5.5,4.82a56.16,56.16,0,0,1-11.76,2.69c-3.1.28-2.6,3.89-2.6,3.89l7.7,25.6Z" transform="translate(0 0)"/><path class="cls-12" d="M411.29,211.5c-3.16-1.65-3.21-3.47-3.23-3.87h0v-.07h0l.07-13.56c-8.38-.72-23.34-1.43-23.34-1.43l-6.69,6.76,0,4,30.19,13.23Z" transform="translate(0 0)"/><path class="cls-12" d="M361.5,159.1a9.73,9.73,0,1,1-8.9,10.5A9.74,9.74,0,0,1,361.5,159.1Z" transform="translate(0 0)"/><path class="cls-12" d="M429.41,153.65l.72.08h0a9.73,9.73,0,1,1-8,2.46c-.07,2.89.61,6.41,4.29,6.53l-.45-5.59A3.35,3.35,0,0,1,429.41,153.65Z" transform="translate(0 0)"/><path class="cls-10" d="M388.48,107.52h0A33.44,33.44,0,0,1,424.42,138l2.47,30.19a33.42,33.42,0,0,1-30.49,35.94h0a33.43,33.43,0,0,1-35.94-30.5L358,143.46A33.44,33.44,0,0,1,388.48,107.52Z" transform="translate(0 0)"/><path class="cls-34" d="M380.33,123.67l1.24,3.31A5.61,5.61,0,0,1,388,130.3c2,4.49,8.87,26,18,24.17s-8.77-30.26-9.73-30.91-15.94.11-15.94.11Zm44.61,20.72.78,9.5-14.48-.49,1-8.56Z" transform="translate(0 0)"/><path class="cls-9" d="M384.78,180a8.76,8.76,0,0,0,17.48-1.28h0a1.52,1.52,0,0,0-1.62-1.4l-14.43,1.06a1.52,1.52,0,0,0-1.4,1.62Z" transform="translate(0 0)"/><path class="cls-17" d="M388.54,186.58a8.75,8.75,0,0,0,10.14-.13,5.44,5.44,0,0,0-5.23-2.85A5.5,5.5,0,0,0,388.54,186.58Z" transform="translate(0 0)"/><path class="cls-7" d="M400.82,177.34l-13.56,1c-.11,1.51.7,3,1.73,3.23,1.26.32,11.05-.66,11.69-1.48A5.16,5.16,0,0,0,400.82,177.34Z" transform="translate(0 0)"/><path class="cls-12" d="M411.76,168.58a4.45,4.45,0,1,0,4.85,4A4.45,4.45,0,0,0,411.76,168.58Z" transform="translate(0 0)"/><path class="cls-12" d="M375.93,171.89a4.45,4.45,0,1,0,4.85,4A4.47,4.47,0,0,0,375.93,171.89Z" transform="translate(0 0)"/><path class="cls-9" d="M371.52,154.18a1.24,1.24,0,0,1-1.35-2.08A11.29,11.29,0,0,1,380.71,151a1.24,1.24,0,1,1-1,2.25C377,152,373.92,152.68,371.52,154.18Z" transform="translate(0 0)"/><path class="cls-9" d="M412.13,149.6c-2.67-.93-5.85-.91-8.18.87a1.24,1.24,0,1,1-1.5-2A11.28,11.28,0,0,1,413,147.27a1.24,1.24,0,0,1-.85,2.33Z" transform="translate(0 0)"/><path class="cls-9" d="M375.56,158.5h0a2.9,2.9,0,0,0-1.77.87,1.18,1.18,0,0,1-.85-.5.47.47,0,0,0-.78.51,2,2,0,0,0,1,.79l0,0a2.14,2.14,0,0,1-1.28-.6.47.47,0,0,0-.66.66,3,3,0,0,0,1.47.8h0a2.78,2.78,0,0,1-1.44-.29.47.47,0,0,0-.62.22.46.46,0,0,0,.21.62,3.65,3.65,0,0,0,1.5.38l.65,0,.4,3.51a2.93,2.93,0,0,0,3.23,2.58h0a2.94,2.94,0,0,0,2.58-3.24l-.43-3.79A2.93,2.93,0,0,0,375.56,158.5Z" transform="translate(0 0)"/><path class="cls-9" d="M408.89,154.74h0a2.92,2.92,0,0,1,1.93.46,1.23,1.23,0,0,0,.71-.69.47.47,0,0,1,.87.33,2,2,0,0,1-.84,1l0,0a2.15,2.15,0,0,0,1.12-.87.46.46,0,0,1,.78.5,3.13,3.13,0,0,1-1.25,1.1h0a2.81,2.81,0,0,0,1.34-.6.47.47,0,0,1,.59.73,3.68,3.68,0,0,1-1.38.7l-.63.17.39,3.5a2.94,2.94,0,0,1-2.57,3.24h0a2.93,2.93,0,0,1-3.23-2.58l-.42-3.79A2.91,2.91,0,0,1,408.89,154.74Z" transform="translate(0 0)"/><path class="cls-19" d="M391.18,167s-2.64,2.67-2.65,4.23,1.53,2.31,3,2.11S392.63,165.38,391.18,167Z" transform="translate(0 0)"/><path class="cls-7" d="M393.11,232s7-3.69,7.79-5.18,7.17-13.37,7.17-15.83v-5.77s-.28,6.21,11.63,8.55l1.7,11.32-17.64,17-10.65-1.49-10.66,1.49-17.64-17,1.7-11.32c11.91-2.34,11.63-8.55,11.63-8.55V211c0,2.46,6.43,14.33,7.17,15.83S393.11,232,393.11,232Z" transform="translate(0 0)"/><path class="cls-12" d="M417.24,213.19c.76.21,1.58.41,2.46.58l1.7,11.32-17.64,17-10.65-1.49-10.66,1.49-17.64-17,1.7-11.32c.88-.17,1.7-.37,2.46-.58,1.51,7.17,6.69,20.59,24.14,20.59S415.72,220.36,417.24,213.19Z" transform="translate(0 0)"/><path class="cls-13" d="M393.11,339.41h47.65s12.41-10.91,10.48-18-7.49-24.59-7.49-24.59c4.5-9.63,3.43-29.09,3.85-48.12s3.8-25.51,3.32-26a3.34,3.34,0,0,0-1.18-.8s-27.46-8.61-28.39-8.63a2.84,2.84,0,0,0-1.65.51s-1,26.84-26.59,26.84-26.6-26.84-26.6-26.84a2.84,2.84,0,0,0-1.65-.51c-.93,0-28.39,8.63-28.39,8.63a3.34,3.34,0,0,0-1.18.8c-.48.53,2.89,7,3.31,26s-.64,38.49,3.86,48.12c0,0-5.57,17.54-7.49,24.59s10.48,18,10.48,18Z" transform="translate(0 0)"/><path class="cls-35" d="M438,351.18s19.34,42,23.19,89H325.06c3.85-47.05,23.19-89,23.19-89l18.94-5.49H419Z" transform="translate(0 0)"/><path class="cls-33" d="M474.71,354.73h0a.6.6,0,0,1-.56-.64c0-.46.66-11.25-11.65-17.82s-17.86.17-18.1.46a.61.61,0,0,1-.94-.77c.06-.07,6.48-7.76,19.61-.76s12.3,18.85,12.29,19A.6.6,0,0,1,474.71,354.73Z" transform="translate(0 0)"/><path class="cls-33" d="M453,366.41c-4.3,0-6.08-2.62-6.18-2.78a.61.61,0,0,1,1-.66c.13.19,3.16,4.53,11.5.56a.61.61,0,0,1,.81.28.61.61,0,0,1-.29.81A16.1,16.1,0,0,1,453,366.41Z" transform="translate(0 0)"/><path class="cls-33" d="M449.29,330a.62.62,0,0,1-.54-.32.61.61,0,0,1,.24-.82c.5-.27,12.34-6.7,22.87-2a.61.61,0,0,1-.49,1.11c-10-4.42-21.67,1.92-21.79,2A.63.63,0,0,1,449.29,330Z" transform="translate(0 0)"/><path class="cls-33" d="M482.18,325.46a.61.61,0,0,1-.56-.37c-.12-.27-3.08-6.73-14.52-5.12a.58.58,0,0,1-.69-.51.62.62,0,0,1,.52-.69c12.39-1.76,15.67,5.53,15.8,5.84a.59.59,0,0,1-.31.79A.53.53,0,0,1,482.18,325.46Z" transform="translate(0 0)"/><path class="cls-33" d="M451.16,325.75a.59.59,0,0,1-.41-.16.6.6,0,0,1-.05-.85,9.71,9.71,0,0,1,5.65-2.81.6.6,0,0,1,.15,1.2,8.57,8.57,0,0,0-4.89,2.42A.62.62,0,0,1,451.16,325.75Z" transform="translate(0 0)"/><path class="cls-33" d="M478.77,363.87l-.14,0a.61.61,0,0,1-.45-.73c0-.15,3.45-15,.35-23.49a.6.6,0,0,1,.36-.78.62.62,0,0,1,.78.36c3.23,8.84-.16,23.57-.31,24.19A.61.61,0,0,1,478.77,363.87Z" transform="translate(0 0)"/><path class="cls-23" d="M337.7,290.41a.58.58,0,0,1-.37-.13c-13.82-10.46-24.92-12.5-25-12.52a.6.6,0,1,1,.2-1.19c.47.08,11.49,2.09,25.56,12.75a.61.61,0,0,1,.12.85A.63.63,0,0,1,337.7,290.41Z" transform="translate(0 0)"/><path class="cls-23" d="M338.79,267.3a.61.61,0,0,1-.59-.44c0-.16-4.73-16.47-6.62-20.65a.62.62,0,0,1,.31-.81.6.6,0,0,1,.8.31c1.92,4.26,6.48,20.15,6.68,20.82a.61.61,0,0,1-.42.75A.44.44,0,0,1,338.79,267.3Z" transform="translate(0 0)"/><path class="cls-23" d="M448.51,290.41a.63.63,0,0,1-.48-.24.61.61,0,0,1,.12-.85c14.07-10.66,25.09-12.67,25.55-12.75a.62.62,0,0,1,.71.49.61.61,0,0,1-.5.7c-.11,0-11.21,2.06-25,12.52A.58.58,0,0,1,448.51,290.41Z" transform="translate(0 0)"/><path class="cls-23" d="M447.42,267.3a.44.44,0,0,1-.16,0,.61.61,0,0,1-.42-.75c.2-.67,4.76-16.56,6.68-20.82a.6.6,0,0,1,.8-.31.62.62,0,0,1,.31.81c-1.89,4.18-6.57,20.49-6.62,20.65A.61.61,0,0,1,447.42,267.3Z" transform="translate(0 0)"/><path class="cls-7" d="M408.08,204.24a2.18,2.18,0,0,1,1.56,0c.64.38,10.06,9.48,10.06,9.48s1.76,18.38,1.65,19.45-.26,2.08-1.55,2S405.47,223,405.47,223a2.39,2.39,0,0,0-2.72.3Z" transform="translate(0 0)"/><path class="cls-7" d="M378.13,204.24a2.18,2.18,0,0,0-1.56,0c-.64.38-10.06,9.48-10.06,9.48s-1.76,18.38-1.65,19.45.26,2.08,1.55,2S380.74,223,380.74,223a2.39,2.39,0,0,1,2.72.3Z" transform="translate(0 0)"/><path class="cls-21" d="M397.14,398.5a.62.62,0,0,1-.5-.24c-.19-.27-4.82-6.64-4.82-11.49,0-4.64-.84-38-.85-38.33a.59.59,0,0,1,.59-.62.65.65,0,0,1,.62.59c0,.33.86,33.71.86,38.36,0,4.46,4.54,10.71,4.58,10.77a.61.61,0,0,1-.13.85A.58.58,0,0,1,397.14,398.5Z" transform="translate(0 0)"/><path class="cls-21" d="M398.2,440.83a.59.59,0,0,1-.59-.51c-3.82-23.36,2.49-91.31,2.56-92a.63.63,0,0,1,.66-.55.61.61,0,0,1,.54.66c-.06.68-6.36,68.48-2.57,91.68a.6.6,0,0,1-.5.7Z" transform="translate(0 0)"/><path class="cls-21" d="M366.87,398a.61.61,0,0,1-.6-.61c0-6.4,7-47,7.28-48.77a.61.61,0,0,1,1.2.21c-.08.42-7.27,42.27-7.27,48.56A.61.61,0,0,1,366.87,398Z" transform="translate(0 0)"/><path class="cls-21" d="M429.81,379.62a.6.6,0,0,1-.6-.54c-1-9.66-7.42-29.46-7.49-29.66a.6.6,0,1,1,1.15-.37c.07.2,6.48,20.12,7.54,29.9a.6.6,0,0,1-.54.67Z" transform="translate(0 0)"/><path class="cls-21" d="M419.76,434a.6.6,0,0,1-.6-.53c-.25-2-6-49.51-6-52.51a.61.61,0,0,1,.61-.61.62.62,0,0,1,.61.61c0,2.93,5.92,51.87,6,52.36a.61.61,0,0,1-.53.67Z" transform="translate(0 0)"/><path class="cls-21" d="M341.48,434h-.1a.61.61,0,0,1-.5-.7c.06-.35,5.79-35,6.85-40a.6.6,0,0,1,1.18.25c-1.05,5.06-6.78,39.65-6.83,40A.61.61,0,0,1,341.48,434Z" transform="translate(0 0)"/><path class="cls-21" d="M383.39,434a.6.6,0,0,1-.6-.58l-.86-20.78a.61.61,0,0,1,.58-.63.63.63,0,0,1,.64.58l.85,20.78a.61.61,0,0,1-.58.63Z" transform="translate(0 0)"/><path class="cls-21" d="M447.13,434a.61.61,0,0,1-.6-.53c-1-7-2.86-20.66-3.19-22a.61.61,0,0,1,.44-.74.61.61,0,0,1,.73.45c.43,1.72,3.11,21.29,3.22,22.12a.59.59,0,0,1-.51.68Z" transform="translate(0 0)"/><path class="cls-22" d="M443.75,297.46a.61.61,0,0,1-.57-.42c-.38-1.13-9.27-27.74-9.48-36.93a.6.6,0,0,1,.59-.62.58.58,0,0,1,.62.6c.21,9,9.33,36.29,9.42,36.57a.59.59,0,0,1-.38.76A.48.48,0,0,1,443.75,297.46Z" transform="translate(0 0)"/><path class="cls-22" d="M346.82,322.19h0a.6.6,0,0,1-.56-.65,52.34,52.34,0,0,0-4.31-24.42.61.61,0,1,1,1.09-.54,53.69,53.69,0,0,1,4.43,25.05A.61.61,0,0,1,346.82,322.19Z" transform="translate(0 0)"/><path class="cls-22" d="M368.43,304a.6.6,0,0,1-.15-1.19c29.73-7.17,50.37-33.32,50.57-33.58a.61.61,0,0,1,1,.75c-.21.26-21.1,26.74-51.24,34Z" transform="translate(0 0)"/><path class="cls-22" d="M447.6,249.33a.6.6,0,0,1-.54-.35c-.32-.68-3.13-6.73-3.31-8.39a.61.61,0,0,1,.54-.67.62.62,0,0,1,.67.54c.13,1.24,2.35,6.2,3.2,8a.61.61,0,0,1-.3.81A.75.75,0,0,1,447.6,249.33Z" transform="translate(0 0)"/><path class="cls-22" d="M339,276.41a.32.32,0,0,1-.14,0,.6.6,0,0,1-.45-.73c.12-.54,3.18-13.33,6.33-17.39a.62.62,0,0,1,.85-.11.61.61,0,0,1,.11.86c-3,3.85-6.08,16.79-6.11,16.92A.62.62,0,0,1,339,276.41Z" transform="translate(0 0)"/><path class="cls-22" d="M425.12,337.55a.61.61,0,0,1-.4-1.06c1.81-1.66,6.67-6.26,7.33-7.58.55-1.12.21-4.64-.14-6.6a.62.62,0,0,1,.49-.71.61.61,0,0,1,.71.5c.1.55.94,5.51,0,7.35s-6.91,7.31-7.6,7.94A.62.62,0,0,1,425.12,337.55Z" transform="translate(0 0)"/><path class="cls-22" d="M368.19,337.06a.6.6,0,0,1-.5-.25c-.15-.21-3.56-5-4.33-7.22a8.16,8.16,0,0,1,.34-5.14.6.6,0,0,1,.79-.33.62.62,0,0,1,.33.8,7,7,0,0,0-.31,4.27c.71,2,4.13,6.87,4.17,6.92a.61.61,0,0,1-.14.84A.58.58,0,0,1,368.19,337.06Z" transform="translate(0 0)"/><path class="cls-22" d="M356.34,338a.56.56,0,0,1-.43-.19c-3.28-3.37-3.28-4-3.28-4.26a.62.62,0,0,1,.61-.61.61.61,0,0,1,.61.61,25.66,25.66,0,0,0,2.93,3.42.61.61,0,0,1-.44,1Z" transform="translate(0 0)"/><path class="cls-22" d="M388.11,336.49a.6.6,0,0,1-.54-.33c-.08-.14-1.78-3.44-1.78-5.38a.61.61,0,1,1,1.21,0c0,1.37,1.19,4,1.64,4.82a.6.6,0,0,1-.26.82A.52.52,0,0,1,388.11,336.49Z" transform="translate(0 0)"/><path class="cls-22" d="M435.47,338.79a.57.57,0,0,1-.35-.12.61.61,0,0,1-.13-.85,49.42,49.42,0,0,0,3.37-5.29.61.61,0,1,1,1.08.56,50,50,0,0,1-3.48,5.45A.61.61,0,0,1,435.47,338.79Z" transform="translate(0 0)"/><path class="cls-7" d="M393.11,348.39s31-.28,44.85,2.79c0,0,.77.05,1.2-1s2.14-9.3,2.14-9.3.4-1.13-.54-1.5c-11.87-3.85-47.65-3.53-47.65-3.53s-35.79-.32-47.66,3.53c-.94.37-.54,1.5-.54,1.5s1.71,8.28,2.14,9.3,1.2,1,1.2,1C362.12,348.11,393.11,348.39,393.11,348.39Z" transform="translate(0 0)"/><path class="cls-10" d="M343.43,345.41c.59,1.55,1.35,3.36,1.76,3.58.72.39,5.57.58,8.39,1.95,0,0-5.78,15.28-7,16.55s-5,2.12-5,2.12a61,61,0,0,1-2.88-6.81c-.33-1.54-.18-3.24-.93-5.35a31.06,31.06,0,0,0-2.46-4.56q.07-1.18.3-2.61C336.4,345.39,340.83,344.75,343.43,345.41Z" transform="translate(0 0)"/><path class="cls-10" d="M442.78,345.41c-.59,1.55-1.35,3.36-1.76,3.58-.72.39-5.57.58-8.39,1.95,0,0,5.78,15.28,7,16.55s4.95,2.12,4.95,2.12a61,61,0,0,0,2.88-6.81c.33-1.54.18-3.24.93-5.35a31.06,31.06,0,0,1,2.46-4.56q-.08-1.18-.3-2.61C449.81,345.39,445.38,344.75,442.78,345.41Z" transform="translate(0 0)"/><path class="cls-21" d="M339.4,374.74a.6.6,0,0,1-.54-.32.61.61,0,0,1,.25-.82c2.59-1.38,5.58-3.17,5.9-3.65s5.25-12.29,8.47-20a.59.59,0,0,1,.79-.32.6.6,0,0,1,.33.79c-.82,2-8.05,19.26-8.53,20.12s-4.64,3.18-6.39,4.12A.58.58,0,0,1,339.4,374.74Z" transform="translate(0 0)"/><path class="cls-21" d="M447.89,378a.66.66,0,0,1-.3-.07c-.57-.33-5.65-3.22-6.67-5.25S432,351,431.7,350.16a.61.61,0,0,1,.34-.79.6.6,0,0,1,.79.34c.08.2,8.23,20.53,9.18,22.41.72,1.44,4.7,3.9,6.18,4.73a.6.6,0,0,1-.3,1.13Z" transform="translate(0 0)"/><path class="cls-29" d="M361.51,136.32,357.19,131a33.3,33.3,0,0,1,2.24-15.13c3.18-7.93,10.16-16.79,25.13-19.14s27.91,6.63,32.08,10.37,6.87,18.38,7,20.88,1.14,9.92,1.14,9.92L407.55,126.8c-1.5-1-18.48-4.09-19.24-3.43s-6.74,3.61-6.74,3.61l-3.05-1.14Z" transform="translate(0 0)"/><path class="cls-29" d="M381.57,127s-4.08-.11-6.24,2.42-3.6,16.81-2.53,22.2-8.52,4.86-10.34,3.5a1.6,1.6,0,0,1-.71-1.39s-5.45-.46-6.56-2.41-2.61-21,7.77-29.31S381.57,127,381.57,127Z" transform="translate(0 0)"/><path class="cls-29" d="M381.57,127c7.05-3,7.78.73,10.45,6,4,7.89,10,20.47,13.42,22,4.81,2.12,11.09-2.07,10.84-3.66a4,4,0,0,0-1.69-2.66,20.12,20.12,0,0,0,6.77,2c3.41.27,6.48-1.65,7-5.26s-9.27-19.33-16.71-24.57S383.76,116.65,381.57,127Z" transform="translate(0 0)"/><path class="cls-24" d="M421.83,118.62c-4,.65-8.7.15-14.12-2.31C396,111,386.47,103,377.28,98.54a34.29,34.29,0,0,0-4.88,2.23,33.22,33.22,0,0,1,9.42,8c10.69,12.8,26,28.53,42.54,26-.3-2.34-.66-5.37-.73-6.79A62.94,62.94,0,0,0,421.83,118.62Z" transform="translate(0 0)"/><path class="cls-17" d="M387.37,93.48h0A33.44,33.44,0,0,1,423.31,124l.32,4h0A33.44,33.44,0,0,0,387.78,98.7h0a33.44,33.44,0,0,0-30.58,34.52h0l-.31-3.8A33.43,33.43,0,0,1,387.37,93.48Z" transform="translate(0 0)"/><path class="cls-9" d="M670.79,433.37H71.86a9.46,9.46,0,0,0-9.43,9.43h0a9.46,9.46,0,0,0,9.43,9.42h31.8a5.25,5.25,0,0,1,5.23,5.24h0a5.24,5.24,0,0,1-5.23,5.23H92a6.56,6.56,0,0,0-6.54,6.55h0A6.56,6.56,0,0,0,92,475.78H649.58a6.56,6.56,0,0,0,6.55-6.54h0a6.57,6.57,0,0,0-6.55-6.55h-9.16a5.24,5.24,0,0,1-5.23-5.23h0a5.25,5.25,0,0,1,5.23-5.24h30.37a9.45,9.45,0,0,0,9.42-9.42h0a9.45,9.45,0,0,0-9.42-9.43Zm-4.91,42.41a6.3,6.3,0,0,1-6.28-6.28V469a6.3,6.3,0,0,1,6.28-6.29h0a6.3,6.3,0,0,1,6.28,6.29v.52a6.29,6.29,0,0,1-6.28,6.28Z" transform="translate(0 0)"/></g></svg>